<?xml version="1.0" standalone="no"?>
<!DOCTYPE svg PUBLIC "-//W3C//DTD SVG 20010904//EN"
 "http://www.w3.org/TR/2001/REC-SVG-20010904/DTD/svg10.dtd">
<svg version="1.0" xmlns="http://www.w3.org/2000/svg"
 width="970.000000pt" height="546.000000pt" viewBox="0 0 970.000000 546.000000"
 preserveAspectRatio="xMidYMid meet">

<g transform="translate(0.000000,546.000000) scale(0.100000,-0.100000)"
fill="#000000" stroke="none">
<path d="M2 4073 c3 -1227 5 -1388 18 -1385 12 2 11 -1 -2 -11 -16 -12 -17
-48 -18 -405 0 -259 3 -392 10 -392 5 0 10 -5 10 -11 0 -5 -4 -7 -10 -4 -7 4
-10 -308 -10 -929 l0 -936 4850 0 4850 0 0 1225 0 1224 -72 -31 c-40 -16 -80
-36 -88 -43 -8 -7 -27 -15 -42 -17 -21 -4 -28 -1 -28 11 0 12 -5 11 -18 -7
-10 -13 -31 -24 -47 -26 -41 -5 -42 -5 -27 -15 11 -7 10 -9 -3 -14 -9 -4 -13
-3 -10 3 3 6 -5 10 -19 10 -27 0 -44 -16 -24 -22 7 -3 5 -7 -6 -11 -10 -4 -15
-3 -11 3 3 6 0 10 -8 10 -22 0 -30 -30 -9 -30 15 -1 15 -2 -2 -11 -14 -9 -20
-8 -26 1 -4 7 -12 10 -18 6 -6 -3 -15 1 -20 10 -6 10 -12 13 -16 6 -3 -6 -2
-13 4 -17 16 -10 12 -25 -5 -19 -9 4 -15 0 -15 -10 0 -9 -5 -16 -10 -16 -7 0
-7 -6 0 -20 6 -11 8 -20 6 -20 -16 0 -26 42 -15 61 8 16 8 20 -1 17 -6 -2 -11
-7 -11 -11 2 -12 -34 -44 -45 -40 -6 2 -23 -1 -39 -7 -25 -9 -26 -9 -15 5 7 8
8 15 2 15 -13 0 -36 -28 -38 -47 -4 -24 -11 -26 -43 -10 -26 13 -31 13 -31 1
0 -8 6 -14 13 -14 6 0 4 -5 -5 -11 -10 -5 -18 -16 -18 -24 0 -8 -6 -12 -14 -9
-8 3 -23 1 -33 -5 -19 -11 -9 -15 32 -12 l20 2 -20 -16 c-11 -9 -28 -14 -39
-11 -11 3 -27 -5 -41 -20 -12 -13 -29 -24 -38 -24 -10 0 -13 -6 -10 -20 4 -15
-2 -22 -22 -30 -33 -12 -45 -13 -25 0 12 7 12 12 2 22 -9 9 -12 9 -12 0 0 -7
-5 -12 -10 -12 -13 0 -60 -49 -60 -61 0 -5 10 -9 22 -9 20 0 20 -1 5 -18 -10
-10 -17 -25 -17 -32 0 -11 -3 -11 -12 -2 -15 15 -48 16 -48 1 0 -5 5 -7 10 -4
5 3 10 1 10 -4 0 -6 -7 -11 -15 -11 -8 0 -15 -7 -15 -15 0 -8 -4 -15 -10 -15
-5 0 -10 7 -10 15 0 9 -6 12 -17 8 -12 -5 -15 -2 -10 10 11 28 4 24 -64 -39
-12 -11 -18 -12 -21 -4 -2 7 -10 -1 -18 -16 -17 -32 -57 -74 -70 -74 -4 0 -6
-9 -3 -20 3 -11 1 -20 -5 -20 -6 0 -23 -13 -39 -30 -15 -16 -34 -30 -40 -30
-11 0 -45 -60 -47 -83 -1 -5 -8 -14 -16 -20 -8 -7 -24 -28 -34 -47 -11 -19
-31 -44 -44 -57 -13 -12 -21 -27 -17 -32 3 -6 1 -11 -6 -11 -7 0 -9 -3 -6 -7
8 -8 -25 -33 -36 -26 -4 2 2 17 13 32 10 16 17 30 14 33 -2 3 2 11 11 18 8 7
15 19 15 27 0 8 5 11 12 7 7 -4 8 -3 4 4 -4 7 -4 17 0 23 4 8 9 7 15 -2 7 -11
9 -10 9 3 0 9 11 30 25 46 14 17 25 33 25 36 0 13 -23 5 -37 -11 -8 -10 -12
-13 -9 -6 4 6 3 14 -2 17 -15 9 -32 -10 -34 -38 -2 -25 -4 -25 -15 -10 -12 17
-15 16 -46 -14 -18 -18 -41 -32 -50 -32 -9 0 -24 -11 -33 -26 -10 -15 -23 -23
-31 -19 -9 3 -13 0 -11 -7 6 -16 -26 -48 -75 -78 -34 -20 -65 -65 -53 -77 8
-8 26 7 26 21 0 18 47 49 55 36 3 -6 -1 -10 -9 -10 -16 0 -49 -57 -41 -70 3
-5 -9 -12 -27 -15 -30 -7 -31 -8 -13 -21 17 -13 17 -14 1 -20 -10 -4 -21 -2
-26 6 -10 16 -45 5 -70 -23 -21 -22 -27 -57 -9 -57 5 0 7 4 4 10 -3 5 -2 10 4
10 6 0 13 -11 17 -25 3 -14 10 -25 15 -25 4 0 6 -16 4 -36 -5 -33 -3 -35 17
-29 16 4 19 3 10 -3 -8 -5 -12 -17 -10 -26 3 -15 5 -15 26 0 18 12 20 19 12
29 -9 11 -7 12 9 8 12 -3 19 -9 16 -13 -3 -4 4 -10 15 -13 24 -6 73 29 64 46
-3 7 3 1 14 -12 11 -13 24 -21 31 -17 14 9 14 1 1 -23 -6 -12 -17 -17 -33 -14
-17 3 -26 -1 -31 -13 -3 -9 -4 -19 -1 -22 3 -3 5 1 5 9 0 12 2 12 9 0 7 -10
13 -11 32 -1 23 11 23 10 5 -4 -11 -9 -29 -16 -40 -16 -12 0 -28 -5 -36 -10
-12 -8 -11 -10 8 -10 12 0 22 -4 22 -10 0 -5 -9 -10 -20 -10 -12 0 -20 -6 -19
-13 3 -20 -12 -47 -27 -47 -8 0 -14 -7 -14 -16 0 -23 59 25 59 49 1 9 5 17 11
17 5 0 7 -8 3 -17 -5 -14 -3 -15 7 -6 15 14 42 6 34 -11 -3 -6 1 -3 9 7 9 10
21 15 31 11 9 -3 16 -1 16 5 0 6 5 11 11 11 5 0 8 -4 5 -8 -2 -4 -1 -14 5 -22
6 -11 9 -8 9 13 0 17 5 27 15 27 9 0 12 6 9 15 -4 8 -1 15 5 15 6 0 11 -4 11
-9 0 -11 63 -9 71 3 10 13 39 -1 39 -18 0 -11 -8 -15 -30 -12 -29 3 -37 -3
-23 -17 3 -4 12 -2 20 5 11 8 12 7 7 -6 -7 -18 6 -22 22 -6 7 7 10 0 10 -24
-1 -19 -4 -32 -8 -29 -5 2 -8 -1 -8 -6 0 -6 -10 -11 -21 -11 -18 0 -19 2 -9
15 10 13 9 15 -9 15 -15 0 -20 4 -15 12 5 10 4 10 -6 1 -9 -8 -18 -8 -29 -2
-17 11 -71 -3 -71 -18 0 -14 47 -30 62 -22 10 5 33 -3 66 -24 53 -33 72 -61
53 -80 -6 -6 -7 -16 -1 -27 5 -9 6 -20 2 -26 -11 -14 -72 -44 -72 -35 0 5 -9
11 -20 14 -11 3 -20 14 -20 25 0 12 -9 22 -22 25 -25 7 -38 -1 -20 -12 7 -4
-7 -8 -31 -9 -23 -1 -57 -3 -76 -4 -21 -2 -36 2 -38 10 -3 6 0 12 7 12 6 0 8
-5 4 -12 -5 -7 -3 -8 5 -3 10 6 10 11 -2 22 -8 9 -20 12 -26 9 -18 -11 -13
-41 10 -62 17 -16 22 -16 29 -4 8 13 10 12 10 -2 0 -16 -12 -24 -23 -15 -2 1
-12 -4 -21 -12 -15 -13 -19 -13 -27 0 -7 11 -9 11 -9 -4 0 -17 -2 -17 -30 3
-25 18 -30 19 -30 6 0 -9 -4 -16 -9 -16 -5 0 -17 -3 -27 -7 -12 -4 -15 -3 -10
5 4 7 4 12 -1 13 -4 0 -18 2 -30 5 -14 2 -23 -1 -23 -9 0 -8 -3 -7 -9 3 -6 8
-8 17 -5 21 2 4 0 10 -6 14 -5 3 -10 15 -10 25 0 10 -4 21 -9 24 -5 4 -7 -3
-4 -13 4 -16 1 -19 -16 -14 -12 3 -21 9 -21 14 0 5 -7 9 -15 9 -9 0 -18 7 -21
15 -9 22 -23 18 -17 -4 4 -17 -1 -19 -58 -19 -67 0 -96 14 -128 61 -14 21 -14
21 4 7 11 -7 26 -21 33 -29 10 -13 12 -11 10 12 -2 18 -7 26 -16 22 -7 -2 -15
1 -18 9 -3 7 -18 13 -34 14 -16 0 -38 5 -49 11 -33 18 -46 13 -26 -9 17 -18
17 -20 2 -14 -10 3 -20 17 -23 29 -4 17 -11 22 -22 17 -15 -5 -15 -4 1 12 14
14 15 21 6 32 -14 17 2 18 21 2 8 -7 6 -3 -4 9 l-18 22 -24 -27 c-14 -15 -23
-21 -22 -12 2 11 -7 15 -34 15 -28 0 -36 4 -35 18 1 9 5 17 10 17 5 0 4 7 -3
15 -11 13 -10 15 6 9 15 -5 16 -4 4 5 -8 5 -34 10 -56 9 -49 -1 -68 8 -60 29
3 8 1 11 -4 8 -6 -3 -10 -2 -10 3 0 5 -14 9 -30 10 -17 0 -30 -4 -30 -9 0 -5
6 -9 14 -9 7 0 19 -7 26 -15 10 -13 9 -15 -9 -15 -12 0 -20 3 -18 8 3 4 -6 15
-19 25 -13 10 -24 14 -24 8 0 -6 -15 -7 -35 -4 -30 5 -36 2 -45 -21 -12 -32
-16 -33 -22 -1 -4 16 -1 22 6 18 6 -4 5 1 -2 10 -8 9 -11 21 -7 27 3 5 1 10
-4 10 -6 0 -11 11 -11 25 0 24 3 25 53 25 68 0 221 -46 300 -91 20 -11 66 16
67 39 0 6 7 12 15 12 8 0 29 6 47 14 18 7 58 21 88 31 82 26 132 58 224 143
46 42 105 95 132 118 114 96 215 184 309 269 99 91 171 143 335 245 47 29 95
63 107 74 12 12 51 39 86 60 36 20 67 46 70 57 4 13 14 19 34 18 16 0 22 -3
13 -6 -32 -13 -65 -73 -40 -73 6 0 9 3 9 8 -3 20 2 32 16 32 8 0 21 13 29 29
9 16 22 31 31 35 9 3 13 2 10 -4 -3 -5 0 -8 7 -5 7 3 20 18 29 34 13 22 23 28
43 26 14 -2 24 0 21 4 -2 5 7 13 20 19 14 7 25 18 25 25 0 7 16 21 35 30 19 9
35 21 35 27 0 5 7 7 15 4 8 -4 22 -1 31 6 25 21 115 60 125 54 5 -3 9 2 9 12
0 11 6 15 20 11 10 -3 25 1 31 9 10 12 8 13 -7 8 -43 -15 5 16 99 65 71 37
103 49 114 42 18 -10 72 3 118 27 17 9 55 17 85 18 30 0 65 4 77 8 l23 7 0
1495 0 1494 -4850 0 -4850 0 2 -1387z m3492 807 c213 -55 478 -217 609 -373
48 -57 77 -114 33 -64 -14 15 -28 27 -31 27 -4 0 -20 10 -37 21 -47 34 -57 9
-15 -37 19 -22 32 -45 30 -52 -3 -7 1 -19 7 -27 10 -12 9 -15 -3 -15 -9 0 -18
3 -20 8 -3 4 -24 7 -47 7 -38 0 -44 -3 -61 -35 -23 -42 -45 -46 -42 -7 2 30
-13 36 -32 11 -10 -15 -14 -15 -46 2 -19 10 -38 17 -43 16 -5 -2 -6 11 -3 28
7 31 -1 38 -20 19 -14 -14 -48 -3 -76 25 -30 29 -151 109 -212 139 -61 31
-226 87 -255 87 -11 0 -28 -4 -38 -10 -9 -5 -29 -14 -44 -20 -17 -5 -30 -19
-34 -35 -3 -14 -12 -25 -20 -25 -8 0 -14 -4 -14 -10 0 -5 5 -10 10 -10 6 0 10
-7 10 -15 0 -8 5 -26 12 -40 10 -22 17 -25 60 -25 29 0 48 -4 48 -11 0 -8 -15
-10 -46 -5 -26 3 -71 6 -100 6 -50 0 -54 2 -54 24 0 13 6 51 14 83 8 32 17 96
20 142 6 74 5 83 -8 72 -8 -7 -18 -34 -21 -59 -4 -26 -12 -63 -18 -82 -6 -19
-10 -43 -9 -53 0 -10 -8 -38 -18 -62 -14 -34 -18 -57 -13 -96 6 -48 5 -52 -12
-45 -13 5 -10 -1 8 -18 15 -14 27 -29 28 -33 1 -4 2 -22 3 -39 2 -41 19 -60
75 -87 64 -30 98 -29 111 4 9 20 17 25 35 22 21 -5 22 -7 9 -31 -19 -36 -18
-114 2 -160 9 -20 32 -84 52 -142 33 -97 36 -114 37 -225 0 -151 -19 -264 -56
-330 -35 -63 -112 -140 -130 -130 -7 5 -10 4 -6 -2 8 -13 -18 -24 -38 -17 -8
4 -22 0 -31 -7 -13 -10 -17 -10 -25 2 -7 11 -11 11 -17 2 -6 -10 -14 -9 -36 2
-16 8 -37 15 -47 15 -10 0 -22 7 -27 15 -7 13 -14 13 -40 4 -18 -6 -41 -9 -52
-6 -13 3 -17 1 -13 -9 3 -8 1 -14 -5 -14 -13 0 -24 44 -16 67 5 15 4 16 -5 3
-9 -12 -13 -13 -20 -2 -6 11 -10 10 -15 -4 -6 -16 -8 -16 -16 -4 -7 11 -10 7
-10 -17 0 -17 6 -33 13 -36 6 -3 2 -4 -9 -4 -19 1 -21 6 -18 35 3 20 -1 39
-10 48 -13 12 -16 11 -22 -8 -4 -13 -7 -32 -5 -43 1 -17 0 -17 -8 -5 -9 13
-11 12 -11 -3 0 -28 -18 -11 -25 25 l-7 32 -14 -25 c-10 -18 -13 -20 -14 -7 0
9 -4 19 -8 22 -5 3 -8 -4 -8 -16 1 -12 -5 -23 -12 -25 -7 -3 -10 1 -6 11 3 9
1 16 -5 16 -6 0 -11 -5 -11 -11 0 -5 -6 -7 -12 -3 -7 5 -22 9 -32 10 -28 2
-96 79 -127 145 -32 66 -40 118 -40 252 1 198 69 409 174 541 29 37 87 189 87
229 0 17 38 104 93 216 43 86 164 166 268 178 30 3 62 12 71 20 10 9 25 12 39
8 18 -6 21 -4 16 9 -4 10 -3 15 2 11 5 -3 31 7 58 21 46 25 52 26 168 20 71
-3 152 -13 199 -26z m-454 -434 c0 -3 -4 -8 -10 -11 -5 -3 -10 -1 -10 4 0 6 5
11 10 11 6 0 10 -2 10 -4z m285 -6 c25 -11 -1 -11 -35 0 -20 6 -21 8 -5 8 11
0 29 -3 40 -8z m62 -6 c-3 -3 -12 -4 -19 -1 -8 3 -5 6 6 6 11 1 17 -2 13 -5z
m93 -15 c0 -13 -13 -11 -35 5 -18 13 -18 14 8 9 15 -3 27 -9 27 -14z m64 -4
c11 -8 16 -15 10 -16 -5 -1 2 -4 15 -8 21 -5 25 -14 27 -49 2 -38 0 -41 -16
-32 -11 6 -25 18 -32 29 -7 10 -21 17 -30 15 -14 -2 -18 5 -18 28 0 26 3 29
23 23 21 -6 21 -6 3 9 -25 20 -8 20 18 1z m-517 -17 c-3 -8 -6 -5 -6 6 -1 11
2 17 5 13 3 -3 4 -12 1 -19z m422 11 c24 -9 29 -14 19 -20 -10 -6 -10 -9 0 -9
6 0 12 -4 12 -8 0 -4 -9 -8 -19 -8 -11 0 -18 3 -16 7 7 10 -42 32 -54 25 -6
-4 -11 -3 -11 3 0 8 15 18 31 20 3 1 21 -4 38 -10z m681 -54 c0 -5 -5 -3 -10
5 -5 8 -10 20 -10 25 0 6 5 3 10 -5 5 -8 10 -19 10 -25z m-461 17 c-13 -6 -14
-11 -4 -36 12 -28 13 -28 19 -9 6 20 9 21 38 9 28 -12 31 -18 34 -62 2 -37 0
-45 -7 -31 -7 11 -17 16 -29 12 -12 -4 -24 2 -34 17 -9 12 -16 17 -16 10 0 -6
-4 -12 -10 -12 -5 0 -7 7 -4 15 4 8 1 15 -5 15 -6 0 -11 -4 -11 -10 0 -5 -7
-7 -16 -3 -13 5 -13 7 -2 14 10 7 10 9 1 9 -8 0 -13 13 -13 29 0 29 12 37 60
39 12 0 12 -1 -1 -6z m-574 -70 c-6 -7 -54 33 -55 44 0 7 13 0 29 -15 16 -14
27 -28 26 -29z m731 0 c-4 -3 -14 2 -24 12 -16 18 -16 18 6 6 13 -6 21 -14 18
-18z m-629 -23 c15 -6 23 -13 17 -15 -6 -3 -31 5 -55 16 -45 22 -17 21 38 -1z
m620 3 l23 -17 -34 0 c-24 0 -31 3 -25 11 5 6 6 14 2 17 -14 14 13 6 34 -11z
m107 -34 c-3 -5 -12 -4 -20 3 -19 16 -18 18 6 12 11 -3 17 -9 14 -15z m-104
-8 c29 -29 25 -43 -5 -16 -24 22 -31 36 -20 36 3 0 14 -9 25 -20z m70 -4 c14
-18 14 -18 -7 -6 -12 8 -19 18 -16 23 3 4 6 7 7 5 1 -2 8 -12 16 -22z m50 -41
c7 -9 8 -15 2 -15 -5 0 -12 7 -16 15 -3 8 -4 15 -2 15 2 0 9 -7 16 -15z m360
-49 c0 -3 -4 -8 -10 -11 -5 -3 -10 -1 -10 4 0 6 5 11 10 11 6 0 10 -2 10 -4z
m770 -522 c22 -25 91 -54 133 -54 21 0 73 -14 115 -31 101 -41 175 -112 186
-179 4 -24 13 -52 21 -60 8 -9 22 -46 31 -82 16 -64 16 -69 -5 -138 -26 -84
-40 -109 -105 -184 -55 -62 -132 -165 -202 -270 l-46 -68 -5 -143 c-4 -123 -2
-151 15 -202 26 -80 37 -98 102 -167 32 -35 42 -50 25 -37 -16 12 -45 31 -62
43 -18 11 -33 24 -33 29 0 6 -17 33 -39 62 -93 126 -106 186 -97 435 4 110 3
189 -3 200 -5 10 -14 49 -19 87 -6 39 -14 78 -18 89 -6 16 -5 17 16 6 20 -11
22 -10 17 4 -4 10 -1 19 8 22 8 4 12 10 9 15 -3 5 -9 7 -14 4 -14 -9 -19 20
-15 91 8 135 7 161 -4 182 -6 12 -9 22 -6 22 4 0 -1 7 -9 15 -34 34 -42 114
-22 215 l5 25 -19 -24 -20 -23 -1 23 c-1 13 -7 -1 -15 -31 -15 -62 -5 -150 23
-205 26 -49 34 -95 16 -95 -8 0 -12 4 -9 9 3 4 -44 8 -104 7 -109 -1 -118 5
-27 18 26 4 45 11 42 17 -4 5 2 9 12 9 14 0 15 2 5 9 -8 4 -13 11 -13 15 7 48
-1 63 -40 86 -38 21 -50 22 -128 17 -93 -7 -150 -25 -276 -89 -106 -53 -122
-62 -148 -85 -12 -10 -33 -26 -47 -35 -22 -14 -27 -14 -49 1 -24 15 -24 15
-18 -10 5 -19 1 -28 -16 -38 -29 -18 -87 -31 -87 -20 0 5 6 9 13 9 13 0 -12
20 -25 20 -12 0 -9 -35 3 -47 18 -18 -27 -36 -70 -28 -33 6 -34 5 -17 -8 18
-13 18 -14 1 -21 -27 -10 -34 4 -26 49 8 43 -10 85 -35 85 -9 0 -14 11 -14 29
0 37 -11 44 -42 28 -83 -43 -172 -133 -217 -217 -36 -68 -53 -83 -20 -17 42
82 115 169 199 236 222 178 467 302 721 365 140 35 203 43 340 45 94 1 119 -2
129 -15z m-2322 -381 c-2 -10 3 -24 12 -31 13 -11 12 -12 -7 -3 -15 8 -20 17
-16 31 7 25 16 27 11 3z m-141 -25 c-3 -7 -5 -2 -5 12 0 14 2 19 5 13 2 -7 2
-19 0 -25z m-17 4 c0 -5 -7 -9 -15 -9 -8 0 -12 4 -9 9 3 4 9 8 15 8 5 0 9 -4
9 -8z m280 -12 c0 -5 -4 -10 -10 -10 -5 0 -10 5 -10 10 0 6 5 10 10 10 6 0 10
-4 10 -10z m17 -22 c-3 -7 -5 -2 -5 12 0 14 2 19 5 13 2 -7 2 -19 0 -25z
m2106 5 c-7 -2 -19 -2 -25 0 -7 3 -2 5 12 5 14 0 19 -2 13 -5z m-1903 -7 c0
-11 -19 -15 -25 -6 -3 5 1 10 9 10 9 0 16 -2 16 -4z m1540 -11 c-30 -17 -40
-18 -40 -6 0 8 22 16 55 19 6 1 -1 -5 -15 -13z m225 4 c15 -7 11 -8 -18 -5
-20 3 -36 2 -33 -2 2 -4 -6 -8 -17 -9 -12 -1 -39 -3 -59 -4 -29 -2 -38 -7 -38
-21 0 -11 -5 -15 -14 -12 -8 3 -21 -4 -29 -16 -11 -15 -16 -18 -20 -8 -5 11
-7 10 -15 -1 -6 -9 -23 -12 -47 -9 -34 4 -35 3 -19 -10 18 -14 18 -14 -3 -9
-13 3 -23 1 -23 -4 0 -5 -10 -9 -22 -9 -13 0 -41 -9 -63 -19 -22 -10 -46 -16
-52 -14 -7 3 -13 0 -13 -6 0 -15 -47 -14 -53 2 -3 7 -6 5 -6 -5 -1 -10 -6 -18
-11 -18 -6 0 -8 11 -4 28 13 51 23 72 38 72 7 0 28 3 45 6 28 6 31 4 31 -17 1
-23 1 -23 15 -6 7 11 12 24 9 31 -2 6 13 20 33 31 56 28 61 29 33 6 -17 -14
-19 -19 -7 -15 12 4 23 0 32 -12 13 -18 14 -17 20 9 7 27 10 28 44 22 20 -4
39 -12 43 -18 5 -8 10 -4 14 11 6 22 16 26 64 23 14 -1 37 2 50 8 31 12 69 12
95 0z m188 -24 c9 -63 -10 -80 -150 -131 -88 -31 -92 -24 -6 11 37 15 73 31
79 36 6 5 15 5 19 1 5 -4 5 -1 1 6 -6 10 -11 10 -22 1 -19 -16 -18 -4 3 29 22
34 33 42 50 35 9 -4 13 4 13 23 0 34 7 29 13 -11z m-93 15 c-8 -5 -24 -9 -35
-9 -16 1 -16 2 5 9 35 11 48 11 30 0z m60 -5 c0 -1 -11 -5 -25 -7 -20 -4 -23
-2 -14 8 8 10 39 10 39 -1z m-150 -9 c0 -2 -7 -7 -16 -10 -8 -3 -12 -2 -9 4 6
10 25 14 25 6z m-490 -36 c-8 -5 -19 -10 -25 -10 -5 0 -3 5 5 10 8 5 20 10 25
10 6 0 3 -5 -5 -10z m-90 -70 c0 -16 -5 -30 -11 -30 -6 0 -8 9 -3 22 6 22 6
22 -19 5 -29 -19 -37 -21 -37 -9 0 6 50 37 68 41 1 1 2 -12 2 -29z m-6 -52
l21 -17 -22 6 c-13 3 -23 10 -23 15 0 5 -9 6 -20 3 -25 -8 -26 3 -2 21 12 9
18 9 21 1 2 -6 14 -19 25 -29z m-97 -11 c1 -20 -2 -37 -7 -37 -5 0 -16 -7 -24
-16 -15 -14 -16 -14 -16 4 0 31 11 52 24 46 6 -3 4 0 -5 8 -12 10 -13 16 -5
25 18 20 31 8 33 -30z m-69 -42 c3 -26 2 -27 -13 -15 -9 7 -13 20 -10 29 5 12
3 13 -5 5 -9 -9 -9 -17 -1 -33 11 -20 9 -22 -16 -21 -11 1 -4 42 9 58 16 19
33 9 36 -23z m-457 -38 c-10 -9 -11 -8 -5 6 3 10 9 15 12 12 3 -3 0 -11 -7
-18z m366 -1 c-7 -13 -15 -22 -19 -20 -8 5 13 44 23 44 4 0 2 -11 -4 -24z
m353 14 c-8 -5 -24 -9 -35 -9 -16 1 -16 2 5 9 35 11 48 11 30 0z m1890 -15 c0
-12 -19 -12 -23 0 -4 9 -1 12 9 8 7 -3 14 -7 14 -8z m-2116 -4 c3 -4 -6 -6
-19 -3 -14 2 -25 6 -25 8 0 8 39 4 44 -5z m2206 -49 c3 -3 -4 -2 -15 3 -11 4
-29 7 -40 7 -14 -1 -16 1 -7 7 11 7 10 9 -2 14 -9 4 -16 1 -16 -5 0 -6 -3 -9
-6 -5 -3 3 -3 11 1 17 4 7 18 4 43 -11 20 -13 39 -25 42 -27z m-6200 -222 c11
-7 7 -10 -17 -10 -18 0 -33 5 -33 10 0 13 30 13 50 0z m3500 2 c0 -5 -7 -17
-15 -28 -14 -18 -14 -17 -4 9 12 27 19 34 19 19z m-3400 -32 c30 -7 64 -16 75
-20 11 -4 25 -8 30 -10 23 -5 85 -41 85 -49 0 -5 -17 0 -38 11 -22 10 -49 21
-61 23 -13 2 -29 9 -37 16 -11 9 -14 8 -14 -3 0 -18 -33 -45 -48 -40 -7 2 -10
8 -7 12 3 5 1 12 -5 15 -6 4 -9 1 -8 -6 2 -6 -3 -14 -9 -16 -17 -6 -16 9 1 32
11 16 17 17 29 7 9 -8 18 -9 21 -3 8 13 -3 19 -52 27 -23 4 -42 11 -42 16 0 6
6 8 13 5 6 -2 37 -10 67 -17z m-130 -10 c8 -5 11 -10 5 -10 -5 0 -17 5 -25 10
-8 5 -10 10 -5 10 6 0 17 -5 25 -10z m56 -31 c3 -6 1 -16 -5 -22 -9 -9 -11 -8
-6 5 4 11 0 18 -12 21 -15 4 -16 5 -1 6 9 0 20 -4 24 -10z m-68 -24 c-3 -3 -9
2 -12 12 -6 14 -5 15 5 6 7 -7 10 -15 7 -18z m6567 -83 c36 -60 52 -97 48
-108 -4 -11 -3 -15 5 -10 6 4 25 -18 46 -54 46 -77 46 -90 2 -24 -41 61 -132
140 -139 122 -4 -10 -7 -11 -18 0 -11 10 -10 12 4 12 25 0 21 10 -25 60 -24
25 -8 11 34 -29 43 -41 79 -73 82 -70 6 6 -59 108 -81 126 -10 8 -12 12 -5 8
16 -8 15 7 -3 31 -13 17 -22 44 -10 33 2 -3 29 -46 60 -97z m-6522 61 c-7 -2
-19 -2 -25 0 -7 3 -2 5 12 5 14 0 19 -2 13 -5z m10 -28 c-3 -9 -8 -14 -10 -11
-3 3 -2 9 2 15 9 16 15 13 8 -4z m414 -37 c7 -5 16 -7 22 -4 5 3 12 -1 15 -10
4 -11 14 -14 29 -11 21 6 21 6 3 -8 -13 -10 -22 -11 -26 -4 -4 5 -16 11 -28
12 -12 0 -24 7 -26 14 -3 7 -14 13 -25 13 -11 0 -23 5 -26 10 -8 13 43 2 62
-12z m27 -59 c-3 -5 -10 -9 -15 -9 -6 0 -7 5 -4 10 3 6 1 10 -5 10 -6 0 -8 5
-5 10 5 8 11 7 21 -1 7 -6 11 -15 8 -20z m94 -5 c18 -8 36 -12 42 -9 6 4 9 1
8 -6 -2 -7 11 -15 28 -19 17 -4 36 -10 43 -14 16 -11 4 -26 -17 -20 -35 11
-151 69 -151 77 -1 11 13 9 47 -9z m8797 -54 c-23 -25 -1 -28 33 -4 12 8 22
11 22 6 0 -9 -33 -28 -65 -35 -11 -3 -29 -8 -40 -12 -17 -6 -16 -5 3 10 13 10
21 23 18 32 -3 8 -2 12 2 9 4 -2 14 -1 22 5 23 14 25 11 5 -11z m-8624 -13
c13 -7 53 -32 88 -55 35 -24 69 -44 74 -45 14 -3 47 -30 43 -34 -3 -4 -76 36
-86 47 -20 21 -116 70 -129 65 -8 -3 -12 -3 -8 1 4 4 2 13 -4 21 -14 16 -8 17
22 0z m8509 -42 c-7 -9 -15 -13 -19 -10 -3 3 1 10 9 15 21 14 24 12 10 -5z
m-9170 -9 c0 -3 -4 -8 -10 -11 -5 -3 -10 -1 -10 4 0 6 5 11 10 11 6 0 10 -2
10 -4z m9031 -43 c-12 -20 -14 -14 -5 12 4 9 9 14 11 11 3 -2 0 -13 -6 -23z
m79 -3 c12 -7 12 -12 2 -22 -9 -9 -12 -9 -12 4 0 9 -8 19 -17 21 -13 3 -14 5
-3 6 8 0 22 -4 30 -9z m-9077 -19 c-5 -21 -56 -22 -76 -1 -10 10 -5 11 21 8
18 -3 35 -1 38 4 10 15 22 8 17 -11z m2239 -22 c-17 -16 -32 -32 -32 -35 0 -4
-8 -13 -17 -20 -15 -11 -16 -15 -4 -23 23 -15 3 -29 -37 -26 -20 1 -25 0 -11
-2 15 -2 35 -13 45 -24 18 -20 18 -20 -7 -14 -20 5 -25 2 -26 -16 -1 -12 3
-31 8 -42 17 -30 -5 -45 -31 -22 -17 15 -23 16 -33 5 -7 -7 -7 -10 -1 -7 6 4
19 -2 29 -13 19 -20 8 -29 -12 -9 -7 7 -9 2 -6 -18 4 -27 4 -27 -11 -9 -9 11
-16 28 -16 38 0 16 -3 16 -20 6 -23 -14 -26 -34 -7 -41 7 -4 6 -6 -5 -6 -9 -1
-19 5 -21 12 -4 9 -6 9 -6 0 -1 -6 4 -15 9 -18 17 -10 11 -25 -6 -18 -14 5
-16 1 -11 -23 l6 -29 -14 30 c-16 34 -18 20 -9 -49 5 -36 10 -46 22 -41 12 4
13 3 3 -9 -7 -8 -10 -20 -6 -26 3 -5 2 -10 -4 -10 -5 0 -11 8 -14 18 -3 13 -6
11 -16 -12 -9 -23 -16 -27 -35 -22 -15 4 -28 0 -36 -9 -7 -8 -20 -14 -29 -13
-23 4 -19 -62 6 -79 11 -9 17 -23 15 -40 -2 -14 0 -23 6 -19 5 3 15 -1 22 -9
6 -7 18 -11 26 -8 9 3 14 -1 14 -13 0 -16 2 -17 10 -4 8 13 10 13 10 -1 0 -9
-7 -19 -15 -23 -9 -3 -15 0 -15 9 0 19 -15 19 -34 -1 -20 -20 -20 -31 0 -51
11 -11 12 -19 5 -26 -6 -6 -11 -25 -11 -42 0 -30 -1 -31 -36 -27 -27 3 -39 0
-46 -12 -11 -20 -32 -21 -48 -1 -15 18 1 20 18 3 17 -17 27 -1 11 18 -12 14
-10 19 16 40 21 17 25 24 14 24 -10 0 -16 7 -15 18 0 9 -5 16 -12 14 -7 -1
-22 7 -34 18 -18 17 -19 20 -5 20 9 0 17 5 17 11 0 7 12 23 26 36 14 13 23 27
19 31 -4 4 -10 1 -12 -5 -3 -7 -9 -13 -15 -13 -6 0 -8 7 -4 15 4 11 -2 15 -22
14 -24 0 -25 -1 -7 -9 11 -5 15 -9 8 -9 -21 -2 -43 11 -43 25 0 8 -5 14 -11
14 -5 0 -8 3 -6 8 3 4 1 16 -4 27 -6 17 -8 17 -8 3 -1 -12 -9 -18 -23 -18
l-22 0 22 20 c26 25 38 25 51 3 6 -10 11 -12 11 -5 0 6 8 12 17 12 14 0 14 3
5 12 -10 10 -15 10 -22 -2 -7 -11 -10 -8 -15 12 -5 20 -11 24 -27 20 -11 -2
-24 -12 -30 -22 -10 -16 -12 -16 -27 -1 -15 14 -15 17 -1 28 13 11 13 12 -2
13 -27 0 -33 -1 -31 -8 3 -12 -57 -6 -69 6 -9 9 -9 15 1 25 10 10 15 8 26 -6
12 -17 15 -17 44 -3 36 19 45 20 35 4 -4 -7 -3 -8 5 -4 17 11 2 28 -20 21 -10
-3 -29 -8 -41 -11 -16 -5 -20 -3 -15 9 4 12 -2 15 -26 15 -58 -1 -80 2 -74 8
3 4 2 15 -4 25 -12 23 -39 14 -39 -13 0 -12 4 -17 12 -12 7 4 8 3 4 -5 -6 -9
-11 -9 -23 1 -17 13 -83 20 -83 7 0 -11 49 -21 63 -12 8 5 8 2 -1 -9 -18 -22
-52 -30 -52 -12 0 8 -5 14 -11 14 -6 0 -7 -6 -2 -12 4 -7 -5 -5 -20 5 -15 10
-32 15 -37 12 -6 -3 -20 1 -32 9 -26 18 -38 20 -38 6 0 -5 8 -10 18 -10 14 0
15 -2 2 -10 -8 -5 -17 -6 -20 -2 -5 7 -24 13 -52 15 -9 1 -15 4 -12 8 2 4 0
10 -6 14 -6 4 -8 10 -5 15 3 4 -2 7 -11 6 -8 -1 -20 -9 -25 -17 -5 -8 -9 -12
-10 -9 -9 49 -9 61 2 54 22 -13 70 -10 64 4 -3 8 -5 18 -5 23 0 6 -4 7 -10 4
-6 -3 -7 1 -4 9 3 9 1 16 -5 16 -6 0 -11 -7 -11 -15 0 -8 -4 -15 -9 -15 -5 0
-8 14 -7 30 3 38 -12 39 -20 3 -11 -53 -15 -60 -23 -39 -7 19 -8 19 -13 -2 -4
-14 -2 -20 4 -16 6 4 9 1 7 -5 -8 -23 -24 -12 -30 18 -5 23 -3 31 8 31 11 0
11 4 3 20 -9 17 -7 22 14 30 17 6 23 14 19 28 -2 11 -10 19 -16 19 -38 -1 -57
5 -57 17 0 11 8 12 42 4 23 -5 47 -13 54 -18 6 -6 14 -7 17 -3 4 3 13 0 22 -7
8 -7 15 -9 15 -5 0 4 6 2 14 -4 8 -7 20 -11 28 -9 15 3 59 -13 138 -50 43 -20
75 -27 148 -30 57 -3 97 0 105 6 11 10 64 24 134 38 12 2 34 9 49 14 47 18
216 52 234 47 15 -4 19 4 25 41 8 52 50 102 86 102 13 0 39 17 64 44 23 24 48
46 56 48 27 10 24 -4 -9 -33z m6728 31 c0 -5 -4 -10 -10 -10 -5 0 -10 5 -10
10 0 6 5 10 10 10 6 0 10 -4 10 -10z m150 -20 c0 -5 -5 -10 -11 -10 -5 0 -7 5
-4 10 3 6 8 10 11 10 2 0 4 -4 4 -10z m-9219 -13 c-8 -11 -5 -13 18 -9 35 5
47 -11 24 -29 -10 -8 -14 -9 -10 -2 4 6 3 14 -3 18 -5 3 -10 1 -10 -4 0 -18
-29 -12 -40 8 -7 14 -6 21 3 24 22 10 30 7 18 -6z m1009 -44 c86 -74 86 -75
60 -62 -14 7 -27 12 -30 11 -3 -1 -5 4 -5 11 -1 6 -7 11 -14 9 -7 -1 -10 2 -6
8 3 5 2 10 -4 10 -11 0 -61 47 -61 57 0 6 19 -8 60 -44z m7930 27 c0 -5 -8
-10 -17 -10 -15 0 -16 2 -3 10 19 12 20 12 20 0z m32 -12 c-7 -7 -12 -8 -12
-2 0 14 12 26 19 19 2 -3 -1 -11 -7 -17z m188 10 c0 -6 -3 -8 -6 -5 -4 3 -15
2 -25 -4 -18 -9 -26 0 -12 14 11 11 43 8 43 -5z m-2452 -23 c-3 -3 -9 2 -12
12 -6 14 -5 15 5 6 7 -7 10 -15 7 -18z m-5903 -13 c-3 -3 -11 0 -18 7 -9 10
-8 11 6 5 10 -3 15 -9 12 -12z m8380 8 c-3 -5 -10 -10 -16 -10 -5 0 -9 5 -9
10 0 6 7 10 16 10 8 0 12 -4 9 -10z m-8344 -27 c13 -16 12 -17 -3 -4 -17 13
-22 21 -14 21 2 0 10 -8 17 -17z m150 0 c13 -16 12 -17 -3 -4 -17 13 -22 21
-14 21 2 0 10 -8 17 -17z m7979 9 c0 -5 -7 -9 -15 -9 -8 0 -15 4 -15 9 0 4 7
8 15 8 8 0 15 -4 15 -8z m130 4 c0 -3 -4 -8 -10 -11 -5 -3 -10 -1 -10 4 0 6 5
11 10 11 6 0 10 -2 10 -4z m-40 -14 c0 -4 -9 -8 -19 -8 -11 0 -17 4 -15 8 3 4
12 8 20 8 8 0 14 -4 14 -8z m-6745 -32 c-3 -5 1 -10 10 -10 9 0 13 -5 10 -10
-5 -8 -11 -7 -21 1 -12 10 -11 29 2 29 3 0 2 -4 -1 -10z m-2345 -10 c0 -5 -5
-10 -11 -10 -5 0 -7 5 -4 10 3 6 8 10 11 10 2 0 4 -4 4 -10z m628 -10 c-7 -11
-16 -20 -20 -20 -5 0 -3 9 4 20 7 11 16 20 20 20 5 0 3 -9 -4 -20z m8222 10
c0 -5 -7 -10 -16 -10 -8 0 -12 5 -9 10 3 6 10 10 16 10 5 0 9 -4 9 -10z
m-7755 -6 c13 -5 11 -9 -11 -20 -31 -17 -42 -11 -24 11 14 17 13 17 35 9z
m2119 -31 c3 -10 10 -49 16 -88 6 -38 17 -79 25 -91 13 -20 12 -20 -41 -16
-36 3 -54 1 -54 -7 0 -6 6 -11 13 -12 6 0 3 -5 -8 -10 -18 -8 -17 -9 4 -5 16
3 63 -13 135 -48 61 -30 158 -68 216 -85 58 -18 121 -39 140 -46 19 -8 103
-23 185 -34 224 -30 415 -68 635 -126 74 -19 182 -45 240 -56 58 -12 186 -43
286 -70 99 -27 187 -49 195 -49 14 0 107 -27 209 -60 30 -10 56 -17 58 -15 1
1 5 13 7 26 3 13 13 29 22 36 10 7 23 16 28 21 18 15 106 21 110 8 16 -53 15
-66 -5 -66 -11 0 -23 -7 -27 -15 -5 -13 -8 -13 -20 4 -8 12 -22 25 -32 31 -15
7 -20 5 -24 -10 -3 -11 0 -18 5 -17 6 1 13 -4 16 -12 3 -8 0 -11 -7 -7 -6 4
-11 3 -11 -3 0 -5 6 -12 13 -14 7 -4 6 -6 -4 -6 -20 -1 -31 -25 -19 -37 14
-14 0 -54 -19 -54 -13 -1 -13 -3 3 -15 19 -15 19 -15 -3 -15 -22 0 -23 3 -19
55 3 30 1 55 -4 55 -4 0 -8 -4 -8 -10 0 -5 -5 -10 -11 -10 -5 0 -8 4 -5 9 15
23 -73 47 -108 29 -10 -6 -16 -6 -13 -1 3 4 -1 14 -9 21 -8 7 -14 8 -14 2 0
-5 -5 -10 -11 -10 -6 0 -9 7 -6 15 8 19 -5 26 -20 10 -14 -15 -6 -27 26 -41
22 -9 21 -10 -17 -10 -43 0 -62 22 -39 45 8 8 7 11 -4 12 -7 0 -24 2 -36 3
-12 1 -20 -1 -17 -5 2 -4 -10 -4 -27 1 -18 5 -36 7 -42 3 -6 -3 -7 -1 -4 5 11
17 -4 42 -24 42 -10 0 -19 -4 -19 -10 0 -5 7 -7 15 -4 8 4 15 1 15 -5 0 -6
-12 -11 -26 -11 -21 0 -25 4 -19 17 5 14 3 15 -6 6 -8 -8 -19 -9 -35 -3 -30
12 -32 -3 -3 -16 21 -10 21 -10 -6 -22 -14 -7 -23 -8 -20 -2 3 5 -1 10 -10 10
-9 0 -13 -4 -10 -10 3 -5 0 -7 -9 -4 -8 3 -23 1 -33 -5 -17 -10 -17 -10 0 -11
9 0 17 -5 17 -11 0 -7 -7 -8 -17 -4 -10 4 -26 10 -35 12 -10 3 -18 9 -18 14 0
12 33 27 47 22 6 -2 15 1 19 8 4 8 3 9 -4 5 -7 -4 -12 -2 -12 4 0 6 -9 5 -23
-4 -22 -15 -107 -48 -107 -42 0 2 9 13 20 26 14 16 26 21 43 16 17 -4 30 0 42
14 10 11 22 17 26 14 5 -3 9 0 9 5 0 14 -17 14 -25 1 -3 -5 -11 -10 -16 -10
-6 0 -7 5 -4 10 3 6 1 10 -4 10 -6 0 -18 15 -26 33 -8 17 -13 24 -10 14 3 -10
-4 -28 -15 -39 -12 -13 -20 -17 -20 -9 0 8 -8 11 -20 8 -11 -3 -20 -1 -20 5 0
5 -5 6 -11 3 -6 -4 -10 -1 -8 6 6 48 -19 71 -40 37 -11 -17 -10 -19 7 -14 16
5 19 1 20 -34 1 -23 -3 -40 -9 -40 -6 0 -9 7 -5 15 3 8 1 15 -4 15 -6 0 -10
-9 -10 -19 0 -13 -6 -18 -17 -16 -10 1 -12 0 -5 -2 6 -3 12 -8 12 -13 0 -4 8
-6 19 -3 10 3 22 -1 27 -8 5 -9 2 -11 -9 -6 -10 3 -17 2 -17 -2 0 -5 7 -11 15
-15 8 -3 15 -11 15 -18 0 -10 -2 -10 -8 -1 -4 6 -20 15 -35 18 -16 4 -31 13
-33 19 -2 6 -21 12 -41 13 -21 1 -46 6 -58 12 -11 5 -33 12 -48 16 -15 3 -25
9 -22 14 5 10 -25 25 -33 16 -3 -3 0 -5 6 -5 7 0 12 -4 12 -9 0 -4 -12 -6 -27
-4 l-28 5 33 -22 c18 -13 39 -35 47 -50 9 -18 29 -33 52 -41 36 -11 111 -42
143 -58 8 -5 58 -25 110 -46 52 -21 130 -55 172 -77 42 -21 83 -37 90 -36 7 2
12 -3 10 -9 -1 -8 8 -13 23 -13 16 0 25 -6 25 -15 0 -8 8 -15 18 -15 10 0 22
-4 28 -9 5 -5 20 -12 34 -16 l25 -8 -20 24 -20 24 26 -22 c14 -13 31 -23 37
-23 7 0 12 -3 12 -8 0 -4 16 -12 35 -18 34 -11 35 -11 19 8 -17 18 -17 18 22
2 52 -21 63 -32 44 -45 -13 -10 -13 -10 0 -6 8 2 24 -5 35 -16 20 -20 20 -20
-9 -13 -24 6 -28 4 -22 -10 5 -14 4 -15 -9 -4 -9 7 -13 15 -10 18 3 3 -12 13
-32 23 -21 10 -40 14 -43 9 -3 -4 -16 -10 -30 -12 -23 -4 -23 -5 10 -15 24 -8
29 -12 15 -13 -11 -1 -25 -2 -32 -1 -6 1 -15 -4 -19 -10 -5 -8 3 -10 25 -7 24
3 31 1 27 -9 -3 -7 -1 -13 3 -13 5 0 11 6 14 13 3 6 4 2 4 -10 -1 -12 -5 -19
-9 -17 -4 3 -8 -1 -8 -8 0 -10 -2 -10 -9 1 -5 7 -13 11 -17 8 -5 -3 -27 8 -49
24 -22 16 -53 37 -69 47 -16 9 -40 30 -54 45 -14 15 -31 26 -38 23 -7 -3 -18
2 -25 10 -7 8 -18 13 -26 10 -7 -3 -13 2 -14 12 -1 16 -2 16 -6 0 -4 -17 -6
-17 -31 -1 -15 10 -29 20 -32 23 -3 3 -19 13 -37 23 -35 19 -63 22 -63 7 0
-13 -47 -13 -52 0 -2 5 -9 6 -17 1 -10 -7 -6 -11 16 -15 41 -9 91 -62 75 -78
-7 -7 -12 -8 -12 -3 0 5 -7 0 -15 -11 -14 -19 -14 -19 -30 4 -9 12 -21 22 -26
22 -5 0 -21 12 -33 27 -22 26 -26 27 -50 14 -14 -8 -29 -11 -33 -8 -3 4 2 7
12 7 18 0 18 0 0 14 -10 7 -27 11 -37 8 -12 -3 -18 1 -18 13 0 12 -5 15 -16
11 -9 -3 -25 -6 -36 -6 -19 0 -20 -2 -6 -17 21 -24 32 -63 19 -63 -6 0 -12 5
-12 10 -1 6 -2 16 -3 23 -1 12 -17 14 -46 5 -8 -3 -12 -3 -7 -1 4 3 7 14 7 26
-1 23 -58 67 -86 67 -8 0 -14 9 -14 20 0 12 -7 20 -17 20 -14 0 -14 2 -1 18
20 23 20 59 1 66 -13 5 -14 4 -3 -9 8 -9 8 -15 2 -15 -6 0 -14 5 -17 10 -3 6
-18 7 -33 3 -24 -6 -26 -5 -13 10 8 10 9 17 3 17 -17 0 -22 -16 -16 -47 5 -25
10 -29 30 -25 14 2 24 0 24 -7 0 -6 -11 -11 -25 -11 -18 0 -28 7 -35 26 -7 17
-15 24 -25 20 -8 -3 -15 -1 -15 5 0 7 -10 9 -24 5 -14 -3 -37 -1 -52 4 -21 8
-29 8 -35 -2 -6 -10 -11 -10 -20 -1 -8 8 -6 13 10 18 12 3 19 11 15 16 -3 6
-13 8 -21 5 -8 -3 -27 1 -44 9 -16 9 -29 13 -29 10 0 -17 -59 28 -62 47 -2 15
-10 24 -23 24 -11 1 -27 2 -35 3 -9 1 -30 14 -47 30 -59 54 -224 133 -241 116
-3 -3 -26 11 -52 30 -26 19 -52 35 -57 35 -5 0 -15 6 -21 12 -7 7 -36 18 -65
24 -28 7 -68 17 -87 23 -19 5 -55 15 -80 22 -25 6 -58 18 -73 26 -15 8 -35 12
-44 9 -13 -5 -14 -4 -3 8 6 9 10 21 7 28 -4 8 -6 7 -6 -4 -1 -25 -21 -23 -21
1 0 11 10 27 22 35 l22 16 -22 0 c-26 0 -30 17 -4 23 13 4 11 5 -5 6 -21 1
-28 -9 -24 -31 0 -5 -6 -8 -15 -8 -13 0 -14 -3 -5 -13 8 -11 6 -18 -8 -31 -11
-10 -24 -15 -30 -12 -5 4 -13 1 -17 -5 -4 -8 -3 -9 4 -5 7 4 12 3 12 -2 0 -14
-25 -22 -39 -13 -9 6 -8 11 3 21 19 15 10 34 -11 26 -11 -5 -13 -2 -9 10 4 12
2 15 -9 10 -9 -3 -38 3 -66 14 -53 21 -114 27 -104 10 9 -14 -8 -13 -23 2 -6
6 -42 13 -79 14 -76 3 -69 -2 52 -36 153 -42 180 -51 197 -64 17 -12 17 -14
-2 -31 -19 -18 -20 -17 -20 8 0 15 -5 27 -11 27 -8 0 -9 -11 -5 -31 5 -25 3
-30 -9 -25 -9 3 -15 0 -15 -10 0 -9 5 -12 11 -8 8 5 10 -1 5 -19 -3 -14 -2
-29 4 -32 5 -3 10 -1 10 5 0 6 4 9 9 5 5 -3 21 5 35 18 20 19 35 23 63 21 35
-3 36 -2 13 8 -15 6 -20 12 -12 15 16 6 68 -27 55 -36 -6 -3 -7 -15 -3 -26 4
-11 3 -31 -2 -44 -6 -18 -5 -22 6 -18 11 4 13 -3 9 -36 -6 -46 -19 -68 -31
-52 -7 11 -58 45 -66 45 -2 0 -2 -8 1 -19 3 -10 0 -22 -5 -25 -6 -3 -8 2 -5
13 3 10 0 22 -6 25 -6 4 -11 0 -11 -8 0 -9 -2 -16 -4 -16 -2 0 -13 -3 -23 -6
-17 -5 -17 -5 0 6 16 10 15 13 -19 31 -21 10 -47 16 -60 13 -14 -4 -26 1 -35
13 -8 10 -21 19 -29 21 -8 2 -16 7 -18 12 -7 19 -30 -2 -26 -23 5 -22 4 -22
-5 1 -12 26 -26 29 -35 6 -4 -10 -2 -13 7 -8 6 4 4 -2 -5 -13 -10 -11 -18 -25
-18 -31 0 -7 -3 -12 -7 -13 -5 0 -18 -2 -31 -3 -17 -2 -21 1 -17 15 3 9 1 20
-4 24 -7 4 -8 -1 -4 -11 5 -13 3 -16 -10 -11 -24 9 -21 -10 3 -25 26 -16 25
-23 -1 -25 -12 -1 -19 1 -15 4 3 3 1 14 -5 25 -6 11 -13 17 -16 15 -2 -3 -18
-1 -34 3 -32 9 -39 -3 -11 -19 28 -17 8 -13 -28 5 l-33 17 24 14 c21 11 21 13
4 11 -11 -2 -26 -10 -33 -18 -12 -13 -13 -13 -6 0 7 12 5 13 -8 2 -12 -10 -17
-10 -27 1 -6 8 -8 17 -4 20 3 4 -2 9 -11 13 -23 9 -20 23 4 17 12 -3 20 0 20
7 0 7 -7 10 -14 7 -9 -4 -14 -1 -12 6 1 7 1 9 -1 5 -8 -13 -23 -9 -23 6 0 23
17 28 33 11 9 -8 22 -15 31 -15 8 0 18 -5 22 -11 3 -6 9 -7 13 -3 3 5 15 16
25 24 16 12 18 12 11 1 -5 -10 -4 -12 3 -7 7 4 12 2 12 -3 0 -6 -4 -11 -8 -11
-5 0 -9 -7 -9 -15 0 -10 10 -15 29 -15 16 0 27 -4 23 -9 -11 -18 15 -22 40 -5
14 9 25 12 25 8 0 -5 11 -9 24 -9 18 0 23 5 20 19 -4 23 -22 36 -50 36 -26 0
-53 45 -36 62 8 8 10 6 6 -9 -3 -12 0 -22 8 -25 9 -4 13 4 12 26 0 17 -6 31
-12 30 -28 -2 -32 -5 -32 -19 0 -8 -7 -15 -15 -15 -11 0 -13 -5 -8 -17 13 -27
10 -56 -6 -61 -10 -3 -12 0 -8 12 10 26 -10 57 -30 49 -14 -6 -13 -2 3 15 13
14 27 20 37 16 10 -3 17 -1 17 5 0 6 -3 11 -8 11 -4 0 -12 10 -17 23 -6 12
-14 21 -20 20 -5 -1 -16 3 -22 9 -16 13 -17 3 -3 -22 9 -16 8 -18 -5 -14 -11
5 -14 2 -9 -12 4 -11 -7 -5 -26 16 -18 19 -30 30 -26 23 3 -6 -1 -13 -11 -16
-15 -3 -13 -6 9 -15 14 -6 30 -17 34 -24 6 -11 5 -11 -8 0 -14 11 -17 10 -22
-5 -3 -11 -17 -20 -32 -21 -14 -1 -23 2 -19 8 3 6 13 10 21 10 8 0 14 4 14 10
0 5 -7 7 -15 4 -10 -4 -15 0 -15 11 0 10 -16 32 -35 50 -19 18 -37 46 -41 61
-6 28 -6 28 9 9 11 -14 16 -16 17 -6 0 12 3 11 18 -1 27 -24 62 -32 62 -15 0
10 -7 14 -22 11 -13 -2 -17 -2 -10 2 17 8 15 27 -2 21 -8 -3 -26 0 -40 6 -26
12 -35 27 -16 27 5 0 14 8 19 18 7 14 6 18 -9 18 -10 0 -16 -4 -13 -9 7 -11
-16 -27 -37 -27 -12 1 -12 3 3 14 24 18 21 27 -5 18 -27 -10 -39 -9 -56 2 -7
4 -19 5 -27 2 -10 -3 -12 0 -8 12 6 15 5 15 -11 3 -23 -19 -57 -21 -73 -5 -15
15 -6 47 11 38 6 -3 3 1 -6 9 -19 15 -25 32 -7 22 5 -4 20 1 31 12 20 18 21
18 14 -3 -3 -12 0 -28 9 -40 15 -18 15 -18 8 0 -4 13 -3 17 5 12 8 -5 12 1 12
16 l1 23 12 -23 c14 -24 30 -21 20 4 -3 8 1 14 8 14 7 0 9 3 6 7 -4 3 0 15 10
25 15 17 15 18 -2 18 -14 0 -13 3 6 20 22 17 25 18 37 3 7 -11 12 -12 12 -4 0
12 50 9 115 -6 11 -3 33 -7 48 -10 17 -3 26 -10 23 -18 -3 -8 5 -15 20 -18 13
-2 24 0 24 4 0 5 -7 9 -15 9 -8 0 -15 5 -15 11 0 6 8 8 18 5 9 -3 34 -8 55
-12 20 -3 37 -10 37 -14 0 -4 11 -5 23 -3 20 4 126 -16 177 -34 8 -2 44 -7 80
-9 56 -4 69 -8 97 -36 19 -19 33 -42 34 -57 l1 -26 9 26 c8 22 5 31 -26 64
-34 38 -47 63 -23 49 7 -4 8 -3 4 4 -5 9 -13 9 -27 2 -23 -13 -26 2 -3 24 22
23 55 20 61 -5 4 -12 11 -18 20 -15 8 3 20 6 27 6 7 0 18 10 24 23 6 12 11 16
11 10 1 -20 15 -15 30 8 12 20 11 21 -8 16 -16 -4 -22 0 -27 19 -4 14 -4 28 0
31 3 4 6 -3 6 -15 0 -21 14 -30 24 -14 2 4 -2 34 -10 67 -7 33 -14 63 -14 68
0 15 39 6 44 -10z m5846 -5 c0 -13 -23 -5 -28 10 -2 7 2 10 12 6 9 -3 16 -11
16 -16z m-6690 -3 c11 -13 10 -14 -4 -9 -9 3 -16 10 -16 15 0 13 6 11 20 -6z
m-55 -5 c3 -5 1 -10 -4 -10 -6 0 -11 5 -11 10 0 6 2 10 4 10 3 0 8 -4 11 -10z
m842 -22 c-3 -8 -6 -5 -6 6 -1 11 2 17 5 13 3 -3 4 -12 1 -19z m5598 11 c4 -6
5 -12 2 -15 -7 -7 -37 7 -37 17 0 13 27 11 35 -2z m-8295 -19 c0 -5 -5 -10
-11 -10 -5 0 -7 5 -4 10 3 6 8 10 11 10 2 0 4 -4 4 -10z m601 -7 c13 -16 12
-17 -3 -4 -10 7 -18 15 -18 17 0 8 8 3 21 -13z m-55 -7 c10 -8 16 -17 13 -20
-3 -4 -17 2 -30 13 -27 23 -13 28 17 7z m1324 5 c0 -6 -4 -13 -10 -16 -5 -3
-10 1 -10 9 0 9 5 16 10 16 6 0 10 -4 10 -9z m6589 4 c-9 -8 -79 -12 -79 -4 0
5 19 9 42 9 23 0 39 -2 37 -5z m-7746 -15 c31 0 18 -19 -15 -22 -23 -2 -32 -7
-30 -18 2 -8 0 -12 -4 -8 -4 5 -9 20 -10 34 -2 22 0 25 19 20 12 -3 30 -6 40
-6z m1371 -25 c14 -9 30 -14 36 -10 7 4 18 -3 27 -15 9 -13 21 -19 30 -15 16
5 92 -24 93 -37 0 -3 -26 1 -57 9 -32 9 -65 17 -73 17 -9 1 -22 6 -30 11 -8 5
-28 8 -45 7 -46 -4 -165 24 -140 33 11 3 26 10 34 14 23 12 98 3 125 -14z
m6216 12 c0 -8 -11 -19 -25 -25 -29 -13 -32 -6 -8 20 19 21 33 23 33 5z m-125
-7 c-3 -5 -14 -10 -23 -10 -15 0 -15 2 -2 10 20 13 33 13 25 0z m60 1 c3 -5 1
-12 -4 -15 -5 -3 -11 1 -15 9 -6 16 9 21 19 6z m-8483 -20 c8 11 9 11 6 1 -4
-16 -22 -18 -24 -2 -2 7 -1 6 3 -1 4 -8 8 -7 15 2z m953 -12 c11 -17 -1 -21
-15 -4 -8 9 -8 15 -2 15 6 0 14 -5 17 -11z m-28 -56 c24 -25 22 -29 -7 -13
-10 5 -23 24 -29 42 -8 27 -8 29 2 14 7 -11 22 -30 34 -43z m-1107 37 c0 -5
-5 -10 -11 -10 -5 0 -7 5 -4 10 3 6 8 10 11 10 2 0 4 -4 4 -10z m1124 -15 c3
-8 1 -15 -4 -15 -6 0 -10 7 -10 15 0 8 2 15 4 15 2 0 6 -7 10 -15z m-875 2
c-2 -1 -13 -9 -24 -17 -19 -14 -19 -14 -6 3 7 9 18 17 24 17 6 0 8 -1 6 -3z
m2523 -19 c-6 -6 -19 -7 -29 -3 -17 7 -17 8 2 15 24 9 41 2 27 -12z m5838 12
c0 -5 -7 -10 -16 -10 -8 0 -12 5 -9 10 3 6 10 10 16 10 5 0 9 -4 9 -10z
m-8228 -12 c-9 -9 -15 -9 -24 0 -9 9 -7 12 12 12 19 0 21 -3 12 -12z m-48 -4
c21 -8 20 -20 -1 -28 -9 -4 -20 -1 -25 6 -16 26 -7 35 26 22z m2476 -4 c0 -5
-2 -10 -4 -10 -3 0 -8 5 -11 10 -3 6 -1 10 4 10 6 0 11 -4 11 -10z m-663 -32
c-3 -7 -5 -2 -5 12 0 14 2 19 5 13 2 -7 2 -19 0 -25z m-1757 16 c0 -8 -19 -13
-24 -6 -3 5 1 9 9 9 8 0 15 -2 15 -3z m2826 -30 c18 -14 18 -15 -6 -8 -14 3
-32 10 -40 15 -12 7 -11 8 6 9 11 0 29 -7 40 -16z m-2078 -19 c-3 -3 -9 2 -12
12 -6 14 -5 15 5 6 7 -7 10 -15 7 -18z m7302 10 c7 -9 8 -15 2 -15 -5 0 -12 7
-16 15 -3 8 -4 15 -2 15 2 0 9 -7 16 -15z m-7241 -40 c11 -14 8 -13 -11 4 -15
13 -24 29 -21 34 4 7 8 6 11 -3 3 -8 12 -24 21 -35z m7213 10 c0 -5 -5 -11
-11 -13 -6 -2 -11 4 -11 13 0 9 5 15 11 13 6 -2 11 -8 11 -13z m-7302 -5 c0
-5 -4 -10 -10 -10 -5 0 -10 5 -10 10 0 6 5 10 10 10 6 0 10 -4 10 -10z m140
-20 c0 -5 -8 -10 -17 -10 -15 0 -16 2 -3 10 19 12 20 12 20 0z m387 -13 c2 -3
-8 -4 -21 -4 -14 0 -31 5 -37 13 -9 11 -5 11 22 4 17 -5 34 -11 36 -13z
m-1607 -22 c14 -18 13 -19 -1 -8 -9 7 -19 10 -22 6 -4 -3 -7 -2 -7 4 0 9 12
26 14 21 1 -2 8 -12 16 -23z m1275 15 c-3 -5 -12 -10 -18 -10 -7 0 -6 4 3 10
19 12 23 12 15 0z m7045 -25 c-7 -9 -15 -13 -18 -10 -3 3 -11 0 -19 -6 -7 -7
-13 -7 -13 -2 0 10 36 31 54 32 5 1 3 -6 -4 -14z m-6243 -10 c-11 -7 -26 -11
-35 -7 -15 6 0 12 48 20 3 1 -3 -5 -13 -13z m-67 1 c0 -3 -4 -8 -10 -11 -5 -3
-10 -1 -10 4 0 6 5 11 10 11 6 0 10 -2 10 -4z m-800 -16 c0 -5 -5 -10 -11 -10
-5 0 -7 5 -4 10 3 6 8 10 11 10 2 0 4 -4 4 -10z m509 -14 c7 -8 8 -17 3 -20
-6 -3 -12 3 -15 14 -6 24 -4 25 12 6z m257 -11 c-3 -8 -1 -15 5 -15 6 0 7 -5
4 -10 -9 -14 -21 -5 -28 20 -3 13 0 20 10 20 9 0 13 -6 9 -15z m-1016 -20 c14
-18 14 -19 -2 -7 -10 8 -23 10 -30 6 -9 -6 -9 -3 1 9 8 10 14 16 15 15 1 -2 8
-12 16 -23z m1225 15 c3 -5 1 -10 -4 -10 -6 0 -11 5 -11 10 0 6 2 10 4 10 3 0
8 -4 11 -10z m-10 -39 c-6 -5 -25 10 -25 20 0 5 6 4 14 -3 8 -7 12 -15 11 -17z
m70 19 c-3 -5 -11 -10 -17 -10 -6 0 -17 -8 -24 -17 -13 -17 -14 -17 -8 0 4 10
16 23 28 27 28 12 28 12 21 0z m-106 -33 c0 -9 -2 -9 -6 1 -2 6 -8 10 -13 7
-4 -3 -11 2 -14 10 -4 13 -2 14 14 5 11 -6 20 -16 19 -23z m167 8 c15 -14 23
-25 19 -25 -4 0 -2 -7 5 -15 10 -12 7 -14 -19 -12 -35 2 -35 2 -21 27 8 16 8
18 -5 14 -10 -4 -15 0 -15 11 0 9 -5 13 -11 10 -6 -4 -8 -13 -6 -19 3 -7 -1
-13 -9 -13 -18 0 -18 6 3 29 21 24 27 23 59 -7z m5924 21 c0 -3 -4 -8 -10 -11
-5 -3 -10 -1 -10 4 0 6 5 11 10 11 6 0 10 -2 10 -4z m-6136 -22 c3 -8 2 -12
-4 -9 -6 3 -10 10 -10 16 0 14 7 11 14 -7z m-49 -14 c3 -5 1 -10 -4 -10 -6 0
-11 5 -11 10 0 6 2 10 4 10 3 0 8 -4 11 -10z m-686 -40 c19 0 12 -18 -9 -25
-25 -8 -43 3 -36 20 3 8 0 15 -6 17 -7 3 -8 10 -3 18 6 10 12 9 26 -8 9 -12
22 -22 28 -22z m-1069 20 c0 -5 -4 -10 -10 -10 -5 0 -10 5 -10 10 0 6 5 10 10
10 6 0 10 -4 10 -10z m2878 -12 c7 -7 12 -23 12 -36 0 -20 -2 -22 -15 -12 -8
6 -19 9 -25 5 -5 -3 -10 -1 -10 4 0 6 5 11 10 11 6 0 10 4 10 10 0 5 -8 6 -17
3 -16 -6 -16 -5 -4 10 16 20 23 21 39 5z m4956 -3 c-7 -16 -24 -21 -24 -6 0 8
7 13 27 20 1 1 0 -6 -3 -14z m-7774 -15 c14 -11 22 -20 18 -20 -14 0 -58 23
-58 32 0 13 13 9 40 -12z m1920 -5 c0 -7 -30 -13 -34 -7 -3 4 4 9 15 9 10 1
19 0 19 -2z m-1150 -15 c0 -5 -2 -10 -4 -10 -3 0 -8 5 -11 10 -3 6 -1 10 4 10
6 0 11 -4 11 -10z m487 -4 c-5 -16 -27 -19 -27 -3 0 7 7 14 15 14 9 0 14 -5
12 -11z m1365 -8 c-6 -6 -15 -8 -19 -4 -4 4 -1 11 7 16 19 12 27 3 12 -12z
m-859 -2 c3 -8 -2 -16 -14 -19 -16 -4 -17 -2 -8 14 12 23 15 23 22 5z m-743
-17 c0 -6 -4 -7 -10 -4 -5 3 -10 11 -10 16 0 6 5 7 10 4 6 -3 10 -11 10 -16z
m910 10 c0 -5 14 -12 32 -17 17 -4 34 -14 36 -21 3 -9 0 -11 -8 -6 -9 5 -11 4
-6 -3 10 -17 49 -16 40 1 -5 9 -4 9 6 0 7 -7 14 -20 15 -30 2 -27 15 -44 28
-36 9 5 9 3 0 -8 -10 -12 -8 -17 8 -28 12 -7 18 -15 15 -18 -3 -3 -12 2 -21
11 -22 21 -36 20 -28 -1 5 -15 3 -14 -10 2 -21 26 -21 36 1 28 15 -6 15 -5 3
10 -12 16 -43 18 -57 5 -3 -4 -15 2 -27 13 -11 10 -30 19 -41 20 -21 0 -21 1
-1 8 14 6 23 4 29 -7 7 -12 10 -12 17 -1 7 11 11 11 17 2 4 -7 13 -9 21 -4 9
6 6 10 -11 16 -29 9 -39 12 -56 13 -8 1 -11 9 -7 21 3 11 1 22 -5 26 -5 3 -10
1 -10 -5 0 -6 -4 -8 -10 -5 -5 3 -10 0 -10 -7 0 -10 -3 -9 -9 2 -6 8 -8 17 -6
21 7 10 55 8 55 -2z m884 -5 c9 -3 16 -11 16 -16 0 -6 -7 -4 -16 3 -14 11 -19
10 -34 -9 -23 -27 -29 -28 -27 -2 1 12 7 18 14 16 7 -3 13 -1 13 4 0 11 11 13
34 4z m-960 -16 c-4 -6 1 -17 11 -25 16 -11 16 -13 3 -13 -9 0 -19 7 -22 16
-9 23 -7 34 5 34 5 0 7 -5 3 -12z m-652 -20 c-7 -7 -12 -8 -12 -2 0 6 3 14 7
17 3 4 9 5 12 2 2 -3 -1 -11 -7 -17z m43 12 c-3 -5 -12 -10 -18 -10 -7 0 -6 4
3 10 19 12 23 12 15 0z m85 6 c0 -11 -19 -15 -25 -6 -3 5 1 10 9 10 9 0 16 -2
16 -4z m485 -7 c11 -17 -1 -21 -15 -4 -8 9 -8 15 -2 15 6 0 14 -5 17 -11z
m305 7 c0 -3 -4 -8 -10 -11 -5 -3 -10 -1 -10 4 0 6 5 11 10 11 6 0 10 -2 10
-4z m-1450 -10 c0 -3 -4 -8 -10 -11 -5 -3 -10 -1 -10 4 0 6 5 11 10 11 6 0 10
-2 10 -4z m2128 -21 c-6 -14 -13 -24 -14 -22 -6 6 9 47 17 47 5 0 3 -11 -3
-25z m-1389 6 c14 -9 9 -41 -7 -41 -5 0 -15 6 -22 14 -6 8 -19 12 -28 9 -14
-6 -15 -5 -2 10 17 18 38 21 59 8z m41 -16 c-8 -10 -6 -15 11 -20 17 -6 20
-12 15 -38 -5 -23 -1 -36 16 -54 12 -12 19 -25 16 -28 -9 -9 -78 36 -72 47 3
5 -2 18 -12 29 -15 17 -16 24 -6 39 7 11 12 26 12 35 0 9 6 12 15 9 12 -5 13
-10 5 -19z m1437 -12 l31 -24 7 21 c7 21 8 21 33 4 39 -26 236 -196 241 -208
2 -5 17 -21 33 -34 16 -14 27 -26 25 -29 -3 -2 -17 7 -32 21 -16 15 -33 26
-39 26 -6 1 -20 15 -31 32 -11 17 -27 34 -35 36 -10 3 -8 -3 7 -19 11 -13 28
-40 37 -59 39 -83 73 -124 126 -148 19 -9 39 -18 44 -20 5 -3 5 2 1 9 -5 8 4
3 19 -11 15 -13 23 -26 17 -28 -6 -2 1 -16 14 -30 14 -15 23 -32 21 -39 -3 -6
2 -14 11 -17 9 -4 13 -9 10 -13 -6 -5 -64 34 -95 64 -7 7 -18 13 -23 13 -5 0
-9 4 -9 9 0 5 -13 23 -29 40 -20 21 -35 29 -48 25 -15 -5 -15 -4 -3 5 10 7 11
11 2 11 -6 0 -11 3 -10 8 5 12 -26 46 -54 61 -16 8 -28 20 -28 28 0 7 -8 21
-17 32 -10 10 -30 33 -45 50 -15 18 -32 29 -39 26 -6 -5 5 -21 30 -42 33 -30
39 -40 35 -63 -4 -19 -1 -29 10 -33 9 -4 16 -17 16 -29 1 -27 22 -58 39 -58 7
0 9 -5 5 -12 -4 -6 7 -22 26 -38 19 -16 30 -32 26 -38 -9 -15 -36 -16 -36 -2
0 6 -16 20 -35 31 -19 12 -35 29 -35 38 0 20 -62 81 -83 81 -9 0 -19 9 -22 20
-3 11 -12 21 -18 21 -7 1 -16 2 -22 4 -5 1 -16 3 -22 3 -7 1 -13 8 -13 16 0
24 -41 31 -57 10 -13 -17 -14 -17 -30 6 -9 13 -25 32 -35 42 -10 10 -18 22
-18 27 0 5 -9 13 -20 16 -20 6 -25 16 -13 28 3 4 14 30 24 58 42 118 43 119
106 72z m2923 5 c20 -8 62 -36 93 -62 32 -26 63 -44 68 -40 6 4 22 -6 35 -21
14 -16 28 -24 35 -19 9 5 10 2 6 -10 -4 -10 -7 -24 -7 -32 0 -8 -7 -14 -16
-14 -8 0 -12 5 -9 10 3 6 1 10 -4 10 -6 0 -11 -8 -11 -18 0 -11 -9 -27 -20
-37 -16 -14 -25 -16 -47 -7 -16 5 -48 16 -72 23 -24 7 -48 21 -54 30 -6 10
-17 15 -26 11 -9 -3 -13 -2 -9 3 9 10 -19 38 -31 31 -5 -3 -11 7 -14 23 -3 16
-9 42 -12 57 -5 23 -4 26 4 14 9 -11 10 -5 5 27 -6 43 -6 43 22 39 16 -2 45
-10 64 -18z m-5575 2 c3 -5 1 -10 -4 -10 -6 0 -11 5 -11 10 0 6 2 10 4 10 3 0
8 -4 11 -10z m236 -7 c13 -16 12 -17 -3 -4 -10 7 -18 15 -18 17 0 8 8 3 21
-13z m1039 7 c0 -5 -2 -10 -4 -10 -3 0 -8 5 -11 10 -3 6 -1 10 4 10 6 0 11 -4
11 -10z m1250 0 c0 -5 -4 -10 -10 -10 -5 0 -10 5 -10 10 0 6 5 10 10 10 6 0
10 -4 10 -10z m-2187 -30 c-3 -11 -11 -20 -18 -20 -10 0 -11 5 -2 24 14 28 28
25 20 -4z m1117 20 c-20 -13 -33 -13 -25 0 3 6 14 10 23 10 15 0 15 -2 2 -10z
m110 -9 c0 -5 -16 -11 -35 -13 -19 -2 -35 -1 -35 3 0 4 15 10 33 12 17 2 33 5
35 5 1 1 2 -2 2 -7z m4665 -29 c-8 -8 -25 10 -19 20 4 6 9 5 15 -3 4 -7 6 -15
4 -17z m-5566 3 c-33 -18 -111 -36 -103 -24 3 5 13 9 22 10 9 0 33 6 52 13 47
18 61 18 29 1z m616 6 c3 -5 1 -12 -5 -16 -5 -3 -10 1 -10 9 0 18 6 21 15 7z
m-990 -11 c3 -6 -1 -7 -9 -4 -18 7 -21 14 -7 14 6 0 13 -4 16 -10z m1282 -15
c-7 -13 -14 -20 -15 -14 -2 5 2 16 8 24 18 21 20 18 7 -10z m119 3 c-11 18 5
15 21 -5 8 -10 11 -12 7 -4 -5 11 -3 13 10 8 10 -4 22 -7 27 -7 6 0 7 -4 4
-10 -3 -5 3 -10 14 -10 11 0 23 -5 26 -10 5 -8 12 -7 23 2 12 10 14 10 8 1 -5
-9 -1 -13 13 -13 11 0 23 5 26 10 3 6 14 10 23 10 14 0 13 -2 -2 -13 -17 -12
-15 -14 15 -14 19 -1 43 -3 54 -6 11 -3 24 -6 29 -6 5 -1 3 -7 -4 -15 -6 -8
-19 -12 -28 -9 -14 6 -15 5 -2 -9 8 -9 18 -14 22 -12 4 3 16 -4 28 -16 11 -11
16 -20 10 -20 -5 0 -10 -5 -10 -11 0 -5 5 -7 12 -3 7 5 8 3 3 -5 -5 -9 -12 -7
-26 8 -11 12 -25 22 -32 23 -57 7 -118 29 -140 51 -12 12 -25 21 -29 20 -5 -2
-8 5 -9 15 0 11 -2 12 -6 4 -3 -8 -9 -10 -16 -4 -11 9 -30 13 -104 25 -12 3
-20 0 -17 -5 3 -5 12 -7 18 -5 14 6 43 -9 35 -17 -3 -3 -19 -2 -37 3 -30 9
-61 -6 -45 -22 3 -4 1 -7 -5 -7 -6 0 -14 5 -17 10 -3 6 -2 10 3 10 6 0 13 7
16 16 5 14 4 15 -9 4 -11 -10 -15 -10 -15 0 0 6 9 14 21 17 12 3 18 11 15 19
-6 16 10 19 19 4 10 -17 28 -11 21 7 -6 14 -3 14 15 -3 12 -10 19 -13 15 -6z
m-228 -5 c9 -16 11 -16 36 0 21 14 24 15 20 2 -4 -8 -12 -15 -20 -15 -8 0 -14
-4 -14 -10 0 -5 -7 -10 -16 -10 -8 0 -12 5 -9 11 4 6 -2 13 -14 16 -11 3 -18
9 -15 14 8 14 22 11 32 -8z m5767 -2 c-3 -6 -11 -8 -17 -5 -6 4 -5 9 3 15 16
10 23 4 14 -10z m-7110 -1 c3 -5 2 -10 -4 -10 -5 0 -13 5 -16 10 -3 6 -2 10 4
10 5 0 13 -4 16 -10z m557 -10 c45 -13 58 -29 20 -24 -37 4 -69 -20 -53 -40 9
-11 8 -17 -4 -30 -9 -9 -13 -21 -9 -27 12 -19 -19 -29 -34 -11 -12 15 -13 14
-7 -11 4 -22 3 -27 -7 -22 -7 4 -4 -1 7 -10 20 -17 20 -17 -3 -10 -12 3 -21 3
-20 -2 2 -4 -1 -9 -6 -10 -5 -1 -12 -7 -17 -14 -5 -9 -11 -6 -20 13 -10 24 -8
29 22 60 50 51 73 96 59 113 -9 10 -7 16 7 24 22 13 21 13 65 1z m458 -10
c-11 -11 -23 -20 -27 -20 -3 0 2 9 12 20 10 11 22 20 27 20 4 0 -1 -9 -12 -20z
m5100 -15 c0 -5 -5 -3 -10 5 -5 8 -10 20 -10 25 0 6 5 3 10 -5 5 -8 10 -19 10
-25z m1044 23 c-3 -4 -11 -5 -19 -1 -21 7 -19 12 4 10 11 0 18 -5 15 -9z
m-5924 -8 c0 -5 -4 -10 -10 -10 -5 0 -10 5 -10 10 0 6 5 10 10 10 6 0 10 -4
10 -10z m75 -19 c1 -15 -4 -18 -19 -14 -12 2 -27 5 -33 5 -9 1 -10 5 -2 15 13
15 33 18 24 3 -3 -5 -1 -10 4 -10 6 0 11 8 11 17 0 22 13 8 15 -16z m765 19
c0 -5 -5 -10 -11 -10 -5 0 -7 5 -4 10 3 6 8 10 11 10 2 0 4 -4 4 -10z m-1660
-4 c0 -2 -7 -7 -16 -10 -8 -3 -12 -2 -9 4 6 10 25 14 25 6z m6720 -6 c0 -5 -5
-10 -11 -10 -5 0 -7 5 -4 10 3 6 8 10 11 10 2 0 4 -4 4 -10z m320 -25 c5 3 11
-2 14 -11 5 -13 14 -15 41 -10 30 6 34 5 28 -11 -6 -15 -5 -16 9 -3 9 8 14 18
11 23 -2 4 1 7 7 7 6 0 13 -6 16 -14 3 -8 12 -12 20 -9 31 12 12 -9 -21 -23
-20 -8 -33 -19 -30 -24 4 -6 11 -8 16 -5 12 8 -1 -26 -19 -47 -13 -16 -13 -18
2 -24 27 -11 18 -19 -23 -20 -28 -1 -41 3 -44 15 -3 9 -8 24 -12 34 -7 16 -3
18 34 13 33 -3 41 -1 41 12 0 12 -3 13 -12 4 -7 -7 -17 -8 -30 -1 -21 12 -24
29 -4 29 8 0 17 4 20 9 3 4 -6 7 -19 5 -16 -1 -25 3 -25 12 0 18 -24 18 -42 1
-15 -15 -42 -11 -32 5 4 6 7 24 6 39 -1 28 -1 28 20 9 12 -11 24 -17 28 -15z
m250 24 c0 -5 -4 -8 -9 -5 -5 3 -11 -1 -15 -9 -3 -9 0 -15 9 -15 12 0 12 -3
-2 -19 -16 -20 -33 -19 -33 0 0 6 6 7 13 3 7 -5 6 -1 -3 10 -13 16 -12 20 5
32 23 17 35 18 35 3z m-6260 -11 c0 -4 -7 -8 -15 -8 -18 0 -20 -16 -2 -23 6
-3 -1 -6 -18 -6 -21 0 -26 2 -16 8 20 13 3 33 -22 26 -14 -4 -17 -3 -10 2 16
11 83 12 83 1z m-1896 -20 c-3 -5 -12 -4 -20 3 -19 16 -18 18 6 12 11 -3 17
-9 14 -15z m2070 16 c8 -3 12 -12 9 -20 -3 -8 0 -14 6 -14 6 0 11 -5 11 -11 0
-5 -4 -7 -10 -4 -5 3 -7 0 -4 -8 4 -10 -2 -14 -20 -14 -14 0 -23 3 -21 7 3 4
-2 10 -10 14 -9 3 -15 0 -15 -9 0 -25 -30 -17 -40 11 -12 32 -6 44 19 37 11
-3 28 0 38 6 22 13 18 12 37 5z m-1244 -14 c0 -5 -5 -10 -11 -10 -5 0 -7 5 -4
10 3 6 8 10 11 10 2 0 4 -4 4 -10z m1614 4 c17 -6 23 -34 8 -34 -5 0 -17 9
-27 20 -18 20 -11 25 19 14z m-1999 -14 c3 -6 -1 -7 -9 -4 -18 7 -21 14 -7 14
6 0 13 -4 16 -10z m2036 -13 c-10 -9 -11 -8 -5 6 3 10 9 15 12 12 3 -3 0 -11
-7 -18z m5068 -12 c-19 -19 -37 -35 -41 -35 -4 0 7 16 25 35 17 19 36 35 40
35 5 0 -6 -16 -24 -35z m-7064 -33 c-3 -3 -10 -1 -14 6 -4 7 -18 14 -29 15
-12 1 -22 5 -22 10 0 5 9 5 20 2 13 -4 20 -2 20 7 0 7 7 2 16 -10 9 -13 13
-26 9 -30z m1271 32 c18 -14 18 -14 -6 -3 -31 14 -36 19 -24 19 6 0 19 -7 30
-16z m190 -20 c-3 -8 -10 -13 -16 -9 -6 4 -5 13 3 26 13 21 23 8 13 -17z m409
26 c3 -6 -1 -7 -9 -4 -18 7 -21 14 -7 14 6 0 13 -4 16 -10z m2115 -11 c0 -6
-4 -7 -10 -4 -5 3 -10 11 -10 16 0 6 5 7 10 4 6 -3 10 -11 10 -16z m3188 5
c16 10 22 -21 7 -41 -8 -10 -15 -13 -15 -7 0 5 5 15 12 22 9 9 8 12 -5 12 -9
0 -17 -5 -17 -12 0 -8 -3 -9 -10 -2 -6 6 -8 19 -4 28 5 13 9 14 14 6 4 -7 12
-10 18 -6z m67 6 c-3 -5 -14 -10 -23 -10 -15 0 -15 2 -2 10 20 13 33 13 25 0z
m-7190 -30 c3 -5 1 -10 -4 -10 -6 0 -11 5 -11 10 0 6 2 10 4 10 3 0 8 -4 11
-10z m1365 -16 c0 -2 -7 -4 -15 -4 -8 0 -15 4 -15 10 0 5 7 7 15 4 8 -4 15 -8
15 -10z m234 -6 c-3 -5 -12 -4 -20 3 -19 16 -18 18 6 12 11 -3 17 -9 14 -15z
m2183 16 c-3 -3 -12 -4 -19 -1 -8 3 -5 6 6 6 11 1 17 -2 13 -5z m-2389 -29
c-3 -3 -9 2 -12 12 -6 14 -5 15 5 6 7 -7 10 -15 7 -18z m151 22 c-2 -1 -12 -9
-22 -16 -15 -12 -17 -12 -11 3 3 9 13 16 22 16 8 0 13 -1 11 -3z m3276 -7 c3
-5 -1 -10 -9 -10 -9 0 -16 5 -16 10 0 6 4 10 9 10 6 0 13 -4 16 -10z m-3404
-23 c-10 -9 -11 -8 -5 6 3 10 9 15 12 12 3 -3 0 -11 -7 -18z m4431 -49 c-17
-52 -32 -51 -37 1 -1 17 -9 39 -18 49 -16 17 -15 18 27 8 l43 -10 -15 -48z
m-6228 47 c3 -8 2 -15 -3 -15 -5 0 -14 7 -21 15 -10 12 -10 15 3 15 8 0 17 -7
21 -15z m2726 0 c0 -8 -2 -15 -4 -15 -2 0 -6 7 -10 15 -3 8 -1 15 4 15 6 0 10
-7 10 -15z m1935 5 c-3 -5 -12 -10 -18 -10 -7 0 -6 4 3 10 19 12 23 12 15 0z
m-195 -16 c0 -3 -13 -3 -29 -2 -16 1 -28 5 -26 9 5 6 55 0 55 -7z m160 7 c0
-6 -10 -8 -21 -6 -33 6 -36 15 -6 15 15 0 27 -4 27 -9z m601 -57 c6 -8 8 -14
4 -14 -15 0 -34 35 -34 60 1 24 1 24 9 -3 5 -16 14 -35 21 -43z m-263 42 c-7
-8 -15 -12 -17 -11 -5 6 10 25 20 25 5 0 4 -6 -3 -14z m2542 -35 c8 -8 9 -11
3 -7 -7 4 -29 3 -48 -3 -37 -10 -38 -4 -6 28 11 12 19 14 26 6 6 -5 17 -16 25
-24z m10 29 c0 -5 -4 -10 -10 -10 -5 0 -10 5 -10 10 0 6 5 10 10 10 6 0 10 -4
10 -10z m-6649 -43 c20 -51 21 -53 9 -34 -6 9 -18 17 -25 17 -8 0 -15 5 -15
11 0 5 5 7 12 3 7 -4 8 -3 4 4 -4 7 -16 12 -27 12 -21 0 -26 16 -6 23 21 7 35
-3 48 -36z m1216 37 c-3 -3 -12 -4 -19 -1 -8 3 -5 6 6 6 11 1 17 -2 13 -5z
m1068 -4 c3 -5 2 -10 -4 -10 -5 0 -13 5 -16 10 -3 6 -2 10 4 10 5 0 13 -4 16
-10z m1595 -2 c0 -11 -12 -10 -30 2 -12 7 -10 9 8 7 12 0 22 -5 22 -9z m30 2
c0 -5 -4 -10 -10 -10 -5 0 -10 5 -10 10 0 6 5 10 10 10 6 0 10 -4 10 -10z
m2425 0 c-3 -5 -11 -10 -16 -10 -6 0 -7 5 -4 10 3 6 11 10 16 10 6 0 7 -4 4
-10z m-5981 -16 c5 -14 4 -15 -9 -4 -17 14 -19 20 -6 20 5 0 12 -7 15 -16z
m6016 7 c0 -5 -7 -11 -14 -14 -10 -4 -13 -1 -9 9 6 15 23 19 23 5z m470 -1
c13 -9 13 -10 0 -10 -8 0 -22 5 -30 10 -13 9 -13 10 0 10 8 0 22 -5 30 -10z
m-3151 -26 c14 -12 -19 -1 -35 12 -18 14 -18 14 6 3 14 -6 27 -13 29 -15z
m251 6 c0 -5 -4 -10 -9 -10 -6 0 -13 5 -16 10 -3 6 1 10 9 10 9 0 16 -4 16
-10z m50 -4 c0 -2 -9 -6 -20 -9 -11 -3 -18 -1 -14 4 5 9 34 13 34 5z m280 -11
c0 -8 -2 -15 -4 -15 -2 0 -6 7 -10 15 -3 8 -1 15 4 15 6 0 10 -7 10 -15z
m2455 -5 c-3 -4 0 -10 7 -12 7 -3 2 -7 -10 -10 -15 -4 -22 -2 -22 8 0 8 5 14
11 14 5 0 7 5 3 12 -4 7 -3 8 5 4 6 -4 9 -11 6 -16z m259 5 c19 -14 19 -15 1
-15 -10 0 -16 -3 -12 -6 7 -7 -17 -34 -29 -34 -5 0 -3 5 4 12 7 7 12 16 12 20
0 14 -38 9 -54 -7 -13 -13 -16 -13 -30 1 -17 17 -20 25 -8 22 4 0 15 2 25 7 9
4 26 5 37 2 11 -3 20 -1 20 4 0 13 12 11 34 -6z m-2929 -5 c16 -7 14 -8 -12
-7 -17 1 -29 5 -26 10 5 9 12 8 38 -3z m-1120 -53 c66 -45 79 -57 73 -63 -3
-3 -21 8 -39 23 -19 16 -46 37 -61 46 -16 10 -28 23 -28 30 0 7 3 8 8 2 4 -6
25 -23 47 -38z m1507 -15 c32 -18 70 -32 85 -32 23 0 25 -2 13 -11 -12 -8 -11
-9 5 -6 70 17 95 18 95 2 0 -9 -9 -15 -22 -16 -18 -1 -19 -2 -5 -6 10 -3 25 1
33 8 12 10 15 10 12 -1 -3 -14 76 -39 124 -40 18 0 26 -4 23 -12 -6 -14 -105
-19 -105 -5 0 4 -4 6 -9 3 -5 -3 -12 1 -15 10 -5 13 -16 15 -56 11 -30 -3 -48
-2 -45 4 4 5 2 9 -4 9 -5 0 -13 -5 -16 -10 -5 -8 -12 -7 -22 1 -12 10 -16 10
-24 -2 -7 -11 -9 -11 -9 4 0 10 -8 21 -17 24 -10 4 -22 12 -26 20 -4 7 -15 13
-22 13 -8 0 -15 5 -15 10 0 6 -8 10 -19 10 -10 0 -21 8 -24 18 -2 9 -8 26 -12
37 -7 18 -6 18 6 4 8 -9 40 -30 71 -47z m2248 54 c0 -3 -4 -8 -10 -11 -5 -3
-10 -1 -10 4 0 6 5 11 10 11 6 0 10 -2 10 -4z m-7352 -33 c1 -24 0 -25 -9 -10
-5 9 -7 22 -4 27 9 15 10 13 13 -17z m972 17 c0 -5 -2 -10 -4 -10 -3 0 -8 5
-11 10 -3 6 -1 10 4 10 6 0 11 -4 11 -10z m6290 -43 c0 -10 -5 -15 -11 -12 -6
4 -8 14 -5 22 4 10 -1 17 -15 20 -15 4 -17 8 -8 14 15 9 38 -17 39 -44z m36
15 c-18 -16 -18 -16 -6 6 6 13 14 21 18 18 3 -4 -2 -14 -12 -24z m-7336 -2 c8
-5 11 -10 5 -10 -5 0 -17 5 -25 10 -8 5 -10 10 -5 10 6 0 17 -5 25 -10z m4870
0 c8 -5 11 -12 7 -16 -4 -4 -1 -14 6 -22 10 -13 9 -15 -6 -9 -10 4 -23 7 -28
7 -5 0 -8 11 -7 25 3 27 6 29 28 15z m-3510 -24 c0 -2 -9 -6 -20 -9 -11 -3
-18 -1 -14 4 5 9 34 13 34 5z m4054 -8 c-6 -10 -5 -10 8 -1 8 7 18 10 22 6 7
-8 12 -9 54 -11 14 -1 20 -6 16 -13 -3 -6 -15 -8 -26 -6 -16 4 -17 3 -7 -9 9
-11 8 -14 -4 -14 -9 0 -19 5 -22 10 -3 6 -12 10 -18 10 -8 0 -7 -3 2 -9 20
-13 -9 -21 -32 -9 -9 5 -23 6 -29 2 -7 -4 -8 -3 -4 5 5 7 16 9 28 5 14 -4 18
-2 14 5 -4 6 -19 11 -34 11 l-27 1 30 14 c38 17 37 17 29 3z m2177 -16 c2 2
-2 -3 -10 -9 -18 -16 -31 -17 -31 -2 0 5 -4 7 -10 4 -5 -3 -10 0 -10 9 0 20
22 26 41 10 9 -8 18 -13 20 -12z m-3778 -22 c10 0 16 -4 13 -9 -4 -5 -2 -11 3
-13 5 -1 2 -9 -6 -17 -12 -11 -14 -10 -11 5 2 13 -4 20 -19 22 -13 2 -23 10
-23 20 0 12 3 13 12 4 7 -7 20 -12 31 -12z m1052 10 c3 -5 -1 -10 -9 -10 -9 0
-16 -5 -16 -11 0 -5 -4 -8 -10 -4 -13 8 -1 35 15 35 8 0 17 -4 20 -10z m-4339
-30 c38 0 24 -24 -16 -28 -24 -3 -38 2 -47 14 -20 27 -16 35 13 24 14 -6 37
-10 50 -10z m6774 10 c0 -5 -5 -10 -11 -10 -5 0 -7 5 -4 10 3 6 8 10 11 10 2
0 4 -4 4 -10z m175 0 c3 -5 1 -10 -4 -10 -6 0 -11 5 -11 10 0 6 2 10 4 10 3 0
8 -4 11 -10z m-6350 -10 c3 -6 -1 -7 -9 -4 -18 7 -21 14 -7 14 6 0 13 -4 16
-10z m6150 -28 c-3 -3 -11 0 -18 7 -9 10 -8 11 6 5 10 -3 15 -9 12 -12z
m-1908 2 c-3 -3 -12 -4 -19 -1 -8 3 -5 6 6 6 11 1 17 -2 13 -5z m801 -19 c12
-14 22 -31 22 -38 0 -6 -9 2 -20 18 -16 24 -20 26 -20 11 0 -11 -3 -16 -7 -13
-3 4 -15 0 -25 -10 -10 -9 -18 -11 -18 -6 0 6 6 16 14 23 8 6 12 18 9 26 -9
23 22 16 45 -11z m-3138 5 c0 -5 11 -12 25 -16 14 -4 24 -11 22 -18 -3 -6 12
-28 31 -48 48 -50 27 -49 -25 2 -23 21 -53 42 -67 46 -29 7 -32 14 -14 32 15
15 28 16 28 2z m4249 -30 c-16 -10 -25 -5 -40 21 -10 20 -10 20 22 4 24 -13
28 -19 18 -25z m-1905 14 c3 -8 2 -12 -4 -9 -6 3 -10 10 -10 16 0 14 7 11 14
-7z m1866 -16 c0 -18 -36 -7 -37 12 -2 17 1 18 18 7 10 -6 19 -15 19 -19z
m260 11 c0 -5 -9 -9 -20 -9 -11 0 -20 6 -20 14 0 9 7 12 20 9 11 -3 20 -9 20
-14z m69 5 c8 -7 -30 -16 -44 -10 -27 10 -17 27 13 20 15 -4 29 -8 31 -10z
m-3453 -21 c-7 -7 -26 7 -26 19 0 6 6 6 15 -2 9 -7 13 -15 11 -17z m-126 7 c0
-5 -4 -10 -10 -10 -5 0 -10 5 -10 10 0 6 5 10 10 10 6 0 10 -4 10 -10z m330
-5 c7 -9 8 -15 2 -15 -5 0 -12 7 -16 15 -3 8 -4 15 -2 15 2 0 9 -7 16 -15z
m-292 -15 c-7 -10 -14 -17 -17 -15 -4 4 18 35 25 35 2 0 -1 -9 -8 -20z m2290
-5 c-3 -3 -9 2 -12 12 -6 14 -5 15 5 6 7 -7 10 -15 7 -18z m44 6 c16 -18 15
-20 -2 -18 -11 1 -18 8 -17 19 1 10 2 18 2 18 0 0 8 -9 17 -19z m-3123 -23
c27 -29 29 -35 16 -48 -13 -13 -17 -12 -34 5 -23 23 -38 75 -23 75 6 0 25 -15
41 -32z m1126 22 c3 -5 2 -10 -4 -10 -5 0 -13 5 -16 10 -3 6 -2 10 4 10 5 0
13 -4 16 -10z m3130 0 c-3 -5 -10 -10 -16 -10 -5 0 -9 5 -9 10 0 6 7 10 16 10
8 0 12 -4 9 -10z m-6501 -15 c-4 -8 -8 -15 -10 -15 -2 0 -4 7 -4 15 0 8 4 15
10 15 5 0 7 -7 4 -15z m3876 -20 c36 -19 61 -35 57 -35 -8 0 -92 42 -117 59
-31 21 -2 10 60 -24z m-647 -5 c-3 -11 -9 -17 -15 -14 -5 3 -4 12 3 20 16 19
18 18 12 -6z m-53 0 c0 -5 -5 -10 -11 -10 -5 0 -7 5 -4 10 3 6 8 10 11 10 2 0
4 -4 4 -10z m138 -7 c6 -19 -25 -16 -32 3 -4 11 -1 14 11 12 9 -2 18 -9 21
-15z m152 2 c0 -8 -9 -15 -20 -15 -11 0 -20 4 -20 10 0 5 7 7 15 4 8 -4 15 -1
15 5 0 6 2 11 5 11 3 0 5 -7 5 -15z m1727 8 c-4 -3 -2 -12 4 -20 7 -8 8 -13 1
-13 -12 0 -23 26 -15 34 4 3 9 6 11 6 3 0 2 -3 -1 -7z m136 -8 c-3 -9 -8 -14
-10 -11 -3 3 -2 9 2 15 9 16 15 13 8 -4z m1044 -8 c7 0 10 -3 8 -7 -4 -6 -24
-6 -70 -1 -5 1 -3 6 5 11 8 5 22 7 30 4 8 -4 20 -7 27 -7z m-2647 -7 c0 -5 -5
-10 -11 -10 -5 0 -7 5 -4 10 3 6 8 10 11 10 2 0 4 -4 4 -10z m-587 -7 c-7 -2
-19 -2 -25 0 -7 3 -2 5 12 5 14 0 19 -2 13 -5z m369 0 c-6 -3 -10 -9 -7 -14 4
-5 -1 -6 -9 -3 -23 9 -19 20 7 21 12 0 16 -1 9 -4z m1946 -26 c15 6 15 5 3
-11 -9 -11 -17 -13 -21 -6 -4 6 -14 8 -22 5 -9 -4 -19 -2 -23 4 -3 7 2 11 14
11 12 0 22 6 22 13 1 6 3 4 6 -5 3 -11 10 -15 21 -11z m1092 13 c0 -5 -5 -10
-11 -10 -5 0 -7 5 -4 10 3 6 8 10 11 10 2 0 4 -4 4 -10z m-5840 -10 c0 -5 -5
-10 -11 -10 -5 0 -7 5 -4 10 3 6 8 10 11 10 2 0 4 -4 4 -10z m1634 -50 c9 0
16 -4 16 -9 0 -5 12 -12 26 -15 32 -8 29 -11 -18 -20 -30 -5 -37 -4 -32 7 3 9
-9 18 -36 27 -43 14 -62 31 -42 38 7 2 12 10 12 17 0 8 13 1 29 -16 16 -16 37
-29 45 -29z m1536 35 c7 -8 8 -15 2 -15 -5 0 -15 7 -22 15 -7 8 -8 15 -2 15 5
0 15 -7 22 -15z m156 -23 c-4 -3 -14 2 -24 12 -16 18 -16 18 6 6 13 -6 21 -14
18 -18z m1465 11 c13 -16 12 -17 -3 -4 -10 7 -18 15 -18 17 0 8 8 3 21 -13z
m-2314 1 c-3 -3 -12 -4 -19 -1 -8 3 -5 6 6 6 11 1 17 -2 13 -5z m368 -4 c3 -5
1 -10 -4 -10 -6 0 -11 5 -11 10 0 6 2 10 4 10 3 0 8 -4 11 -10z m-150 -9 c10
-17 -15 -23 -31 -7 -14 15 -14 16 5 16 11 0 22 -4 26 -9z m405 -1 c24 -15 7
-18 -20 -3 -14 7 -18 13 -10 13 8 0 22 -4 30 -10z m81 -17 c7 -10 9 -15 5 -11
-5 4 -15 3 -22 -3 -9 -8 -11 -5 -7 10 6 25 7 25 24 4z m1650 0 c13 -16 12 -17
-3 -4 -17 13 -22 21 -14 21 2 0 10 -8 17 -17z m-1590 -4 c11 -5 16 -15 13 -21
-4 -7 -3 -8 5 -4 20 13 48 -4 67 -41 14 -27 16 -37 6 -40 -6 -3 -10 -10 -6
-16 3 -7 -1 -4 -9 6 -16 19 -37 23 -37 6 0 -13 -53 39 -68 68 -7 12 -9 29 -6
37 7 19 9 19 35 5z m1549 1 c0 -5 -2 -10 -4 -10 -3 0 -8 5 -11 10 -3 6 -1 10
4 10 6 0 11 -4 11 -10z m-1739 -20 c6 0 7 -5 4 -10 -4 -6 -11 -8 -16 -5 -5 4
-9 0 -9 -7 0 -9 -3 -9 -10 2 -14 22 -12 33 6 26 9 -3 20 -6 25 -6z m69 -23 c8
0 22 -7 30 -16 13 -13 13 -14 -3 -8 -13 5 -25 0 -39 -15 -11 -13 -17 -18 -14
-12 3 6 -4 18 -15 27 -22 20 -16 42 10 31 9 -3 23 -7 31 -7z m50 3 c0 -5 -5
-10 -11 -10 -5 0 -7 5 -4 10 3 6 8 10 11 10 2 0 4 -4 4 -10z m300 -56 c25 -12
59 -28 75 -35 17 -8 32 -16 35 -19 8 -8 103 -42 132 -47 15 -3 33 -11 39 -19
6 -8 19 -14 28 -14 11 0 17 -10 19 -35 3 -46 -14 -52 -67 -25 -23 11 -46 18
-51 15 -6 -3 -10 1 -10 10 0 12 5 15 18 11 15 -6 15 -5 2 8 -8 9 -26 17 -40
20 -14 2 -27 5 -30 6 -3 2 -9 2 -14 1 -5 -1 -6 5 -3 13 4 10 1 13 -9 9 -7 -3
-14 -10 -14 -16 0 -6 -13 1 -28 16 -32 31 -47 35 -38 11 5 -14 4 -15 -9 -4 -8
7 -15 9 -15 4 0 -5 -11 4 -25 20 -14 16 -25 33 -25 38 0 5 -19 30 -42 56 -43
47 -43 47 -8 22 19 -14 55 -35 80 -46z m-1784 43 c8 3 14 1 14 -5 0 -5 9 -12
21 -15 12 -3 18 -10 15 -16 -8 -12 -76 26 -75 42 0 9 2 9 5 0 3 -7 12 -9 20
-6z m72 -7 c7 -11 9 -20 4 -20 -4 0 -13 9 -20 20 -7 11 -9 20 -4 20 4 0 13 -9
20 -20z m1442 0 c0 -5 -2 -10 -4 -10 -3 0 -8 5 -11 10 -3 6 -1 10 4 10 6 0 11
-4 11 -10z m29 -34 c8 -10 8 -16 -3 -25 -11 -10 -14 -7 -12 14 1 29 0 29 15
11z m-356 -15 c15 -8 27 -18 27 -23 0 -14 -14 -9 -45 18 -31 26 -28 27 18 5z
m2699 -13 l-21 -21 2 21 c0 11 4 19 8 16 4 -2 11 1 14 7 4 5 10 8 13 4 3 -3
-4 -15 -16 -27z m68 12 c0 -15 -6 -20 -27 -19 l-28 1 25 8 c14 4 21 8 17 9 -5
1 -5 6 -2 11 10 16 15 12 15 -10z m-2585 -38 c-4 -4 -10 -1 -12 6 -3 6 -10 9
-16 5 -7 -4 -6 1 2 11 13 16 15 16 24 1 5 -9 6 -20 2 -23z m2480 28 c3 -5 1
-10 -4 -10 -6 0 -11 5 -11 10 0 6 2 10 4 10 3 0 8 -4 11 -10z m-2380 -9 c3 -5
2 -12 -3 -15 -5 -3 -9 1 -9 9 0 17 3 19 12 6z m-1317 -13 c14 -14 16 -48 3
-48 -5 0 -12 7 -15 16 -3 9 -12 14 -20 11 -14 -5 -36 10 -36 25 0 13 55 9 68
-4z m3752 -8 c0 -5 -2 -10 -4 -10 -3 0 -8 5 -11 10 -3 6 -1 10 4 10 6 0 11 -4
11 -10z m-195 -10 c3 -5 1 -10 -4 -10 -6 0 -11 5 -11 10 0 6 2 10 4 10 3 0 8
-4 11 -10z m-2437 -25 c0 -26 -13 -34 -20 -13 -4 10 9 35 18 38 1 0 2 -11 2
-25z m249 19 c-3 -3 -12 -4 -19 -1 -8 3 -5 6 6 6 11 1 17 -2 13 -5z m-97 -24
c0 -5 -4 -10 -10 -10 -5 0 -10 5 -10 10 0 6 5 10 10 10 6 0 10 -4 10 -10z
m-1313 -6 c-3 -3 -12 -4 -19 -1 -8 3 -5 6 6 6 11 1 17 -2 13 -5z m123 -30 c0
-8 -4 -12 -10 -9 -5 3 -10 10 -10 16 0 5 5 9 10 9 6 0 10 -7 10 -16z m2633 -8
c4 -10 1 -13 -9 -9 -7 3 -14 0 -14 -7 0 -6 -5 -8 -11 -5 -6 5 -4 12 8 21 10 7
19 14 19 14 1 0 4 -7 7 -14z m-1353 -16 c-8 -5 -19 -10 -25 -10 -5 0 -3 5 5
10 8 5 20 10 25 10 6 0 3 -5 -5 -10z m1450 6 c0 -3 -8 -13 -17 -22 -17 -17
-17 -17 2 -10 29 12 54 13 56 1 1 -5 9 -16 18 -23 14 -12 14 -13 -2 -8 -12 4
-17 2 -14 -6 2 -7 10 -12 16 -10 7 1 11 -3 10 -10 -3 -21 12 -48 27 -48 8 0
14 -9 14 -19 0 -16 18 -32 41 -35 14 -2 40 -37 34 -46 -3 -5 1 -10 9 -10 20 0
20 10 -1 40 -12 17 -13 25 -5 28 7 2 12 10 12 17 0 8 8 13 19 12 10 0 18 -8
17 -17 -1 -10 7 -14 27 -13 15 1 28 -2 28 -7 1 -6 2 -16 3 -22 3 -16 -13 -50
-28 -61 -6 -5 -1 -5 12 -2 16 5 22 2 22 -9 0 -9 5 -16 10 -16 6 0 10 -9 10
-20 0 -18 -6 -20 -41 -18 -43 2 -59 12 -34 22 8 3 15 1 15 -4 0 -15 17 -12 23
3 6 15 -49 18 -70 4 -7 -5 -17 -6 -22 -2 -5 3 -12 1 -16 -5 -4 -6 -11 -8 -16
-5 -5 4 -9 1 -9 -5 0 -7 -7 -10 -15 -7 -21 9 -28 -10 -8 -21 14 -8 12 -10 -10
-9 -22 2 -27 6 -23 21 3 13 2 16 -6 8 -6 -6 -17 -8 -24 -5 -10 4 -12 0 -8 -11
3 -9 10 -13 15 -10 5 3 9 0 9 -5 0 -17 -27 -13 -34 5 -5 12 -15 15 -39 11 -17
-2 -39 -1 -48 4 -9 4 -33 9 -53 11 -33 2 -52 17 -23 19 10 0 10 2 0 6 -18 7
-16 23 3 23 8 0 13 4 10 9 -4 5 -3 17 0 26 5 13 9 14 15 4 11 -18 23 -4 15 16
-5 13 -10 14 -28 4 -19 -9 -21 -9 -10 2 19 20 14 31 -9 19 -26 -14 -27 -14
-35 40 -14 92 -12 105 19 108 15 2 27 9 27 18 0 8 5 14 10 14 6 0 10 -4 10
-10 0 -19 42 -10 47 10 3 11 9 18 13 15 5 -3 11 -1 15 5 6 10 15 14 15 6z
m130 -56 c0 -5 -5 -10 -11 -10 -6 0 -9 -6 -6 -13 7 -19 -8 -43 -17 -28 -4 6
-1 11 6 11 10 0 11 2 0 8 -16 10 -5 42 14 42 8 0 14 -4 14 -10z m40 -6 c0 -8
-19 -13 -24 -6 -3 5 1 9 9 9 8 0 15 -2 15 -3z m159 -86 c1 -5 -3 -8 -9 -8 -5
0 -10 12 -9 28 0 24 1 25 9 7 5 -11 9 -23 9 -27z m36 23 c3 -5 1 -12 -4 -15
-5 -3 -11 1 -15 9 -6 16 9 21 19 6z m-225 -37 c0 -8 -5 -12 -10 -9 -6 4 -8 11
-5 16 9 14 15 11 15 -7z m315 6 c-4 -6 -11 -7 -17 -4 -7 4 -7 0 0 -13 9 -15 6
-22 -11 -33 -20 -12 -21 -12 -9 3 9 11 10 17 2 22 -8 5 -8 11 1 21 13 16 44
19 34 4z m-55 -31 c0 -6 -4 -7 -10 -4 -5 3 -10 11 -10 16 0 6 5 7 10 4 6 -3
10 -11 10 -16z m-54 -35 c-4 -9 -9 -15 -11 -12 -3 3 -3 13 1 22 4 9 9 15 11
12 3 -3 3 -13 -1 -22z m183 13 c13 4 14 3 1 -5 -8 -6 -17 -9 -21 -6 -4 2 -10
-4 -13 -13 -8 -23 -113 -93 -140 -93 -15 0 -25 10 -34 32 l-11 31 27 -26 c25
-24 28 -25 28 -7 0 10 -2 17 -4 15 -5 -5 -32 21 -32 31 0 3 6 1 14 -5 8 -7 34
-9 66 -6 54 5 80 22 57 38 -8 5 -5 7 8 5 13 -2 19 2 17 12 -3 12 -1 12 9 3 6
-6 19 -9 28 -6z m-129 -7 c0 -5 -5 -10 -11 -10 -5 0 -7 5 -4 10 3 6 8 10 11
10 2 0 4 -4 4 -10z m-15 -30 c3 -5 1 -10 -4 -10 -6 0 -11 5 -11 10 0 6 2 10 4
10 3 0 8 -4 11 -10z m-3095 -40 c0 -5 -4 -10 -10 -10 -5 0 -10 5 -10 10 0 6 5
10 10 10 6 0 10 -4 10 -10z m217 -72 c0 -7 4 -21 8 -30 4 -11 3 -18 -4 -18 -6
0 -11 6 -11 14 0 8 -3 21 -6 30 -3 9 -2 16 3 16 5 0 10 -6 10 -12z m2843 2 c0
-5 -5 -10 -11 -10 -5 0 -7 5 -4 10 3 6 8 10 11 10 2 0 4 -4 4 -10z m-335 -20
c3 -5 1 -10 -4 -10 -6 0 -11 5 -11 10 0 6 2 10 4 10 3 0 8 -4 11 -10z m-2575
-21 c0 -5 -4 -9 -10 -9 -5 0 -10 7 -10 16 0 8 5 12 10 9 6 -3 10 -10 10 -16z"/>
<path d="M2835 4730 c-3 -6 1 -7 9 -4 18 7 21 14 7 14 -6 0 -13 -4 -16 -10z"/>
<path d="M2923 4723 c5 -8 -4 -10 -31 -6 -32 4 -44 1 -67 -21 -15 -14 -23 -26
-16 -26 6 0 11 -8 11 -18 0 -26 42 -62 72 -62 33 0 55 26 60 73 3 28 -1 42
-16 55 -11 9 -16 12 -13 5z m4 -37 c1 -1 -16 -2 -38 -2 -39 -1 -54 11 -21 19
13 3 43 -6 59 -17z"/>
<path d="M2825 4600 c10 -11 20 -20 23 -20 3 0 -3 9 -13 20 -10 11 -20 20 -23
20 -3 0 3 -9 13 -20z"/>
<path d="M2935 4559 c-5 -6 -33 -8 -81 -4 -82 6 -95 -4 -35 -29 53 -21 121 -5
135 30 6 16 -10 19 -19 3z"/>
<path d="M3050 4560 c0 -5 5 -10 10 -10 6 0 10 5 10 10 0 6 -4 10 -10 10 -5 0
-10 -4 -10 -10z"/>
<path d="M3045 4520 c3 -5 11 -10 16 -10 6 0 7 5 4 10 -3 6 -11 10 -16 10 -6
0 -7 -4 -4 -10z"/>
<path d="M3035 4480 c-4 -6 10 -10 35 -10 25 0 39 4 35 10 -3 6 -19 10 -35 10
-16 0 -32 -4 -35 -10z"/>
<path d="M3625 4340 c3 -5 8 -10 11 -10 2 0 4 5 4 10 0 6 -5 10 -11 10 -5 0
-7 -4 -4 -10z"/>
<path d="M3708 4303 c7 -3 16 -2 19 1 4 3 -2 6 -13 5 -11 0 -14 -3 -6 -6z"/>
<path d="M5036 3601 c-9 -13 5 -42 17 -38 5 1 14 13 18 25 7 18 5 22 -11 22
-10 0 -21 -4 -24 -9z"/>
<path d="M5103 3475 c-15 -13 -23 -25 -17 -25 6 0 18 7 25 16 7 9 22 20 34 24
16 7 17 9 3 9 -9 1 -30 -10 -45 -24z"/>
<path d="M5121 3461 c-35 -35 -5 -111 44 -111 35 0 75 37 75 70 0 53 -79 81
-119 41z m83 3 c29 -11 17 -21 -25 -21 -24 0 -45 -6 -50 -14 -6 -9 -9 -10 -9
-2 0 14 38 43 56 43 7 0 19 -3 28 -6z"/>
<path d="M5252 3357 c-12 -13 -19 -27 -15 -32 5 -4 1 -6 -7 -3 -8 3 -25 2 -37
-3 -12 -4 -36 -4 -54 1 -38 11 -55 4 -38 -16 9 -12 15 -12 27 -2 13 10 14 10
8 1 -5 -10 3 -13 28 -13 46 0 51 2 49 20 -2 10 0 10 3 3 9 -21 24 -15 34 13 7
17 15 24 25 20 20 -7 28 9 12 23 -11 8 -19 5 -35 -12z"/>
<path d="M4960 3294 c0 -8 5 -12 10 -9 6 4 8 11 5 16 -9 14 -15 11 -15 -7z"/>
<path d="M4982 3285 c-1 -17 2 -23 12 -19 8 3 12 14 9 25 -7 27 -18 24 -21 -6z"/>
<path d="M4989 3128 c-12 -41 4 -59 29 -34 15 15 15 18 2 26 -14 9 -29 13 -31
8z"/>
<path d="M2332 1994 c-16 -18 -15 -29 2 -15 7 6 21 9 30 5 9 -3 16 -2 16 4 0
16 -34 20 -48 6z"/>
<path d="M1365 1940 c-3 -5 -1 -10 4 -10 6 0 11 5 11 10 0 6 -2 10 -4 10 -3 0
-8 -4 -11 -10z"/>
<path d="M2205 1930 c-3 -5 1 -10 10 -10 9 0 13 5 10 10 -3 6 -8 10 -10 10 -2
0 -7 -4 -10 -10z"/>
<path d="M1983 1893 c-13 -2 -23 -8 -23 -12 0 -10 59 -1 66 10 5 9 -4 10 -43
2z"/>
<path d="M2040 1890 c0 -5 5 -10 10 -10 6 0 10 5 10 10 0 6 -4 10 -10 10 -5 0
-10 -4 -10 -10z"/>
<path d="M1552 1883 c10 -2 15 -10 11 -19 -3 -8 -1 -14 4 -14 5 0 9 9 10 20 1
15 -4 20 -20 19 -16 -1 -17 -3 -5 -6z"/>
<path d="M1577 1848 c-14 -14 -26 -18 -44 -13 -21 5 -24 3 -19 -10 5 -13 2
-14 -14 -5 -16 8 -24 7 -36 -5 -8 -8 -12 -15 -7 -15 5 0 14 5 21 12 9 9 12 9
12 0 0 -7 9 -12 21 -12 15 0 19 -5 15 -15 -3 -8 -1 -15 3 -15 5 0 11 7 15 15
3 8 9 15 13 14 20 -3 27 2 13 11 -12 8 -11 10 7 10 15 0 21 -5 17 -13 -4 -10
4 -13 28 -10 61 8 63 11 32 43 -34 34 -52 36 -77 8z m-27 -38 c0 -5 -4 -10
-10 -10 -5 0 -10 5 -10 10 0 6 5 10 10 10 6 0 10 -4 10 -10z"/>
<path d="M2022 1848 c-18 -18 -15 -49 3 -42 11 4 13 2 10 -9 -4 -8 1 -17 10
-21 20 -7 38 2 29 15 -3 5 -10 7 -15 4 -5 -3 -6 1 -3 9 3 8 12 12 20 9 9 -3
14 2 14 16 0 22 -24 29 -35 11 -10 -16 -28 -12 -21 5 7 18 4 19 -12 3z"/>
<path d="M2160 1850 c-9 -6 -10 -10 -3 -10 6 0 15 5 18 10 8 12 4 12 -15 0z"/>
<path d="M1876 1841 c-4 -6 -13 -8 -21 -4 -10 3 -15 -1 -15 -12 0 -10 5 -14
13 -10 6 4 -1 -5 -16 -19 -20 -18 -23 -26 -13 -26 9 0 16 5 16 10 0 6 6 10 13
10 6 0 18 12 24 27 13 26 11 44 -1 24z"/>
<path d="M1913 1818 c1 -13 7 -16 22 -12 19 5 19 4 3 -9 -22 -18 -23 -28 -2
-20 19 7 64 47 64 57 0 3 -5 6 -11 6 -5 0 -7 -6 -3 -12 6 -10 5 -10 -7 -1 -22
18 -68 11 -66 -9z"/>
<path d="M1780 1811 c0 -6 4 -12 8 -15 5 -3 9 1 9 9 0 8 -4 15 -9 15 -4 0 -8
-4 -8 -9z"/>
<path d="M1810 1810 c0 -5 5 -10 11 -10 5 0 7 5 4 10 -3 6 -8 10 -11 10 -2 0
-4 -4 -4 -10z"/>
<path d="M1880 1800 c0 -5 5 -10 10 -10 6 0 10 5 10 10 0 6 -4 10 -10 10 -5 0
-10 -4 -10 -10z"/>
<path d="M2095 1790 c-3 -5 -1 -10 4 -10 6 0 11 5 11 10 0 6 -2 10 -4 10 -3 0
-8 -4 -11 -10z"/>
<path d="M2130 1789 c0 -5 11 -9 25 -9 14 0 25 4 25 9 0 5 -11 9 -25 9 -14 0
-25 -4 -25 -9z"/>
<path d="M1438 1773 c7 -3 16 -2 19 1 4 3 -2 6 -13 5 -11 0 -14 -3 -6 -6z"/>
<path d="M1983 1766 c0 -16 44 -28 53 -15 3 5 -4 9 -16 9 -12 0 -18 5 -15 10
3 6 0 10 -8 10 -7 0 -14 -6 -14 -14z"/>
<path d="M2080 1756 c0 -9 5 -16 10 -16 6 0 10 4 10 9 0 6 -4 13 -10 16 -5 3
-10 -1 -10 -9z"/>
<path d="M2055 1740 c3 -6 -3 -10 -14 -10 -12 0 -21 -4 -21 -9 0 -5 6 -8 13
-8 6 1 29 -3 50 -7 49 -11 70 5 43 32 -17 15 -18 16 -13 0 4 -12 1 -16 -14
-15 -10 1 -19 4 -19 8 0 4 -7 10 -16 13 -8 3 -12 2 -9 -4z"/>
<path d="M2186 1734 c-9 -22 -8 -24 9 -24 8 0 15 6 15 14 0 22 -17 28 -24 10z"/>
<path d="M1987 1724 c-3 -4 -2 -14 3 -24 5 -10 7 -19 5 -22 -2 -2 5 -4 16 -4
10 0 17 5 14 11 -3 5 -8 18 -11 28 -7 18 -16 22 -27 11z"/>
<path d="M2094 1519 c-3 -6 -1 -16 6 -22 10 -9 11 -9 6 1 -8 14 3 16 24 2 15
-9 30 3 30 25 0 6 -4 4 -9 -4 -6 -10 -13 -11 -29 -2 -15 8 -23 8 -28 0z"/>
<path d="M2060 1496 c0 -18 19 -31 28 -21 4 4 1 10 -6 12 -6 3 -10 9 -6 14 3
5 0 9 -5 9 -6 0 -11 -6 -11 -14z"/>
<path d="M2130 1384 c0 -8 5 -12 10 -9 6 3 10 10 10 16 0 5 -4 9 -10 9 -5 0
-10 -7 -10 -16z"/>
<path d="M2080 1384 c0 -2 9 -8 20 -14 11 -6 20 -7 20 -2 0 6 -9 12 -20 15
-11 3 -20 3 -20 1z"/>
<path d="M2568 1838 c5 -5 19 -5 33 1 22 8 22 9 -9 9 -19 -1 -29 -5 -24 -10z"/>
<path d="M2440 1821 c0 -5 5 -13 10 -16 6 -3 10 -2 10 4 0 5 -4 13 -10 16 -5
3 -10 2 -10 -4z"/>
<path d="M2520 1789 c0 -5 5 -7 10 -4 6 3 10 8 10 11 0 2 -4 4 -10 4 -5 0 -10
-5 -10 -11z"/>
<path d="M2635 1790 c-3 -5 -1 -10 5 -10 6 0 8 -4 5 -10 -3 -5 -1 -10 5 -10 6
0 8 -4 5 -10 -3 -5 -1 -10 5 -10 7 0 9 7 6 16 -4 9 -1 23 5 30 9 11 7 14 -9
14 -12 0 -24 -4 -27 -10z"/>
<path d="M2565 1710 c3 -5 10 -10 16 -10 5 0 9 5 9 10 0 6 -7 10 -16 10 -8 0
-12 -4 -9 -10z"/>
<path d="M2720 1710 c-12 -8 -10 -10 8 -10 13 0 20 4 17 10 -7 12 -6 12 -25 0z"/>
<path d="M3090 1650 c0 -5 5 -10 10 -10 6 0 10 5 10 10 0 6 -4 10 -10 10 -5 0
-10 -4 -10 -10z"/>
<path d="M3190 1630 c0 -11 2 -20 5 -20 2 0 9 9 15 20 9 16 8 20 -5 20 -8 0
-15 -9 -15 -20z"/>
<path d="M2695 1610 c-7 -12 19 -24 37 -17 7 3 3 6 -10 6 -13 1 -20 5 -17 11
3 6 4 10 1 10 -3 0 -8 -5 -11 -10z"/>
<path d="M2815 1590 c3 -5 8 -10 11 -10 2 0 4 5 4 10 0 6 -5 10 -11 10 -5 0
-7 -4 -4 -10z"/>
<path d="M2755 1580 c3 -5 11 -10 16 -10 6 0 7 5 4 10 -3 6 -11 10 -16 10 -6
0 -7 -4 -4 -10z"/>
<path d="M2573 1565 c0 -8 4 -15 8 -15 4 0 9 7 13 15 3 9 0 15 -8 15 -7 0 -13
-7 -13 -15z"/>
<path d="M2640 1561 c0 -6 4 -13 10 -16 6 -3 7 1 4 9 -7 18 -14 21 -14 7z"/>
<path d="M2850 1490 c0 -5 5 -10 11 -10 5 0 7 5 4 10 -3 6 -8 10 -11 10 -2 0
-4 -4 -4 -10z"/>
<path d="M2995 1490 c3 -5 11 -10 16 -10 6 0 7 5 4 10 -3 6 -11 10 -16 10 -6
0 -7 -4 -4 -10z"/>
<path d="M3210 1440 c0 -5 5 -10 11 -10 5 0 7 5 4 10 -3 6 -8 10 -11 10 -2 0
-4 -4 -4 -10z"/>
<path d="M4370 1425 c0 -8 4 -15 10 -15 5 0 7 7 4 15 -4 8 -8 15 -10 15 -2 0
-4 -7 -4 -15z"/>
<path d="M3005 1419 c-4 -6 -4 -13 -1 -16 3 -4 6 -1 6 6 0 7 5 9 12 5 7 -4 8
-3 4 4 -9 15 -13 15 -21 1z"/>
<path d="M4237 1419 c7 -7 15 -10 18 -7 3 3 -2 9 -12 12 -14 6 -15 5 -6 -5z"/>
<path d="M4543 1419 c3 -9 -1 -26 -9 -38 -8 -11 -11 -21 -5 -21 5 0 16 -3 24
-6 13 -4 14 1 7 31 -5 20 -12 40 -16 43 -4 4 -5 0 -1 -9z"/>
<path d="M4580 1380 c0 -5 4 -10 9 -10 6 0 13 5 16 10 3 6 -1 10 -9 10 -9 0
-16 -4 -16 -10z"/>
<path d="M4726 1371 c-4 -5 -2 -12 3 -15 5 -4 12 -2 15 3 4 5 2 12 -3 15 -5 4
-12 2 -15 -3z"/>
<path d="M2835 1360 c-3 -5 1 -10 10 -10 9 0 13 5 10 10 -3 6 -8 10 -10 10 -2
0 -7 -4 -10 -10z"/>
<path d="M4651 1354 c0 -11 3 -14 6 -6 3 7 2 16 -1 19 -3 4 -6 -2 -5 -13z"/>
<path d="M4760 1360 c0 -5 5 -10 11 -10 5 0 7 5 4 10 -3 6 -8 10 -11 10 -2 0
-4 -4 -4 -10z"/>
<path d="M4390 1336 c0 -7 79 -58 94 -60 6 -1 17 -6 25 -10 10 -6 12 -5 7 2
-4 7 -1 12 8 12 35 0 13 17 -41 32 -32 8 -66 19 -75 23 -10 4 -18 4 -18 1z"/>
<path d="M4880 1336 c0 -2 11 -6 25 -8 13 -3 22 -1 19 3 -5 9 -44 13 -44 5z"/>
<path d="M4731 1312 c0 -12 -8 -25 -16 -28 -8 -4 -15 -11 -15 -16 0 -6 6 -6
14 1 13 11 32 15 84 20 10 1 10 5 0 21 -14 22 -29 27 -25 8 4 -20 -31 -21 -36
-1 -4 14 -5 13 -6 -5z"/>
<path d="M5050 1303 c0 -12 28 -38 34 -32 2 2 -5 13 -15 23 -11 11 -19 15 -19
9z"/>
<path d="M4270 1170 c0 -5 5 -10 11 -10 5 0 7 5 4 10 -3 6 -8 10 -11 10 -2 0
-4 -4 -4 -10z"/>
<path d="M4405 1150 c3 -5 8 -10 11 -10 2 0 4 5 4 10 0 6 -5 10 -11 10 -5 0
-7 -4 -4 -10z"/>
<path d="M4340 1130 c0 -5 5 -10 11 -10 5 0 7 5 4 10 -3 6 -8 10 -11 10 -2 0
-4 -4 -4 -10z"/>
<path d="M4390 1130 c0 -5 5 -10 11 -10 5 0 7 5 4 10 -3 6 -8 10 -11 10 -2 0
-4 -4 -4 -10z"/>
<path d="M4575 1020 c-3 -5 -2 -10 4 -10 5 0 13 5 16 10 3 6 2 10 -4 10 -5 0
-13 -4 -16 -10z"/>
<path d="M4630 980 c0 -5 5 -10 10 -10 6 0 10 5 10 10 0 6 -4 10 -10 10 -5 0
-10 -4 -10 -10z"/>
<path d="M5016 971 c-4 -7 -5 -15 -2 -18 9 -9 19 4 14 18 -4 11 -6 11 -12 0z"/>
<path d="M4786 961 c-3 -5 1 -11 9 -14 9 -4 12 -1 8 9 -6 16 -10 17 -17 5z"/>
<path d="M4846 935 c4 -8 10 -15 15 -15 4 0 6 7 3 15 -4 8 -10 15 -15 15 -4 0
-6 -7 -3 -15z"/>
<path d="M4913 886 c0 -8 6 -12 14 -9 7 3 10 9 7 14 -8 14 -21 11 -21 -5z"/>
<path d="M5270 896 c0 -2 8 -10 18 -17 15 -13 16 -12 3 4 -13 16 -21 21 -21
13z"/>
<path d="M5365 840 c11 -5 27 -9 35 -9 13 -1 13 0 0 9 -8 5 -24 9 -35 9 l-20
0 20 -9z"/>
<path d="M455 1840 c3 -5 8 -10 11 -10 2 0 4 5 4 10 0 6 -5 10 -11 10 -5 0 -7
-4 -4 -10z"/>
<path d="M3320 1348 c0 -24 38 -44 54 -28 8 9 7 11 -6 8 -9 -1 -24 6 -32 17
-13 17 -15 18 -16 3z"/>
<path d="M3445 1310 c-3 -5 1 -10 10 -10 9 0 13 5 10 10 -3 6 -8 10 -10 10 -2
0 -7 -4 -10 -10z"/>
<path d="M3380 1301 c0 -10 19 -25 25 -20 1 2 -3 10 -11 17 -8 7 -14 8 -14 3z"/>
<path d="M3470 1280 c0 -5 4 -10 9 -10 5 0 18 -3 28 -6 16 -6 16 -5 -2 9 -23
19 -35 21 -35 7z"/>
<path d="M3505 1230 c3 -5 10 -10 16 -10 5 0 9 5 9 10 0 6 -7 10 -16 10 -8 0
-12 -4 -9 -10z"/>
<path d="M3540 1200 c0 -5 5 -10 11 -10 5 0 7 5 4 10 -3 6 -8 10 -11 10 -2 0
-4 -4 -4 -10z"/>
<path d="M3570 1160 c0 -5 5 -10 10 -10 6 0 10 5 10 10 0 6 -4 10 -10 10 -5 0
-10 -4 -10 -10z"/>
<path d="M1377 1273 c-4 -3 -7 -11 -7 -17 0 -6 5 -5 12 2 6 6 9 14 7 17 -3 3
-9 2 -12 -2z"/>
<path d="M5655 690 c3 -5 8 -10 11 -10 2 0 4 5 4 10 0 6 -5 10 -11 10 -5 0 -7
-4 -4 -10z"/>
<path d="M5725 630 c3 -5 8 -10 11 -10 2 0 4 5 4 10 0 6 -5 10 -11 10 -5 0 -7
-4 -4 -10z"/>
<path d="M5510 665 c0 -2 10 -10 23 -16 20 -11 21 -11 8 4 -13 16 -31 23 -31
12z"/>
<path d="M5902 580 c7 -11 16 -20 21 -20 4 0 5 -4 2 -10 -3 -6 1 -7 10 -4 14
6 13 10 -6 30 -27 29 -44 31 -27 4z"/>
<path d="M6170 439 c0 -14 26 -16 37 -4 9 10 7 13 -13 11 -13 0 -24 -4 -24 -7z"/>
<path d="M7097 426 c-3 -8 1 -20 8 -26 8 -7 12 -16 9 -21 -3 -5 0 -9 6 -9 8 0
9 7 5 18 -4 9 -7 25 -7 35 1 21 -14 23 -21 3z"/>
<path d="M7031 397 c2 -1 13 -9 24 -17 19 -14 19 -14 6 3 -7 9 -18 17 -24 17
-6 0 -8 -1 -6 -3z"/>
<path d="M7114 278 c3 -10 9 -25 12 -33 4 -10 0 -15 -12 -15 -11 0 -25 -4 -33
-9 -9 -6 -2 -8 20 -6 19 1 40 -2 47 -7 21 -18 14 9 -14 49 -15 21 -24 30 -20
21z"/>
<path d="M7305 269 c-4 -6 -5 -12 -2 -15 2 -3 7 2 10 11 7 17 1 20 -8 4z"/>
<path d="M7190 216 c0 -6 12 -22 25 -35 14 -13 25 -19 25 -13 0 5 -7 15 -15
22 -9 7 -14 18 -11 25 2 6 -2 12 -10 12 -8 0 -14 -5 -14 -11z"/>
<path d="M7266 193 c-3 -4 -6 -11 -6 -17 0 -6 4 -6 11 1 6 6 18 9 25 6 8 -3
14 -1 14 4 0 10 -35 15 -44 6z"/>
<path d="M7130 175 c0 -8 7 -15 15 -15 9 0 12 6 9 15 -4 8 -10 15 -15 15 -5 0
-9 -7 -9 -15z"/>
<path d="M7196 162 c-3 -5 1 -9 9 -9 8 0 12 4 9 9 -3 4 -7 8 -9 8 -2 0 -6 -4
-9 -8z"/>
<path d="M7047 146 c-3 -8 2 -16 14 -19 15 -4 19 -1 17 10 -4 22 -24 27 -31 9z"/>
<path d="M7107 147 c-3 -8 1 -14 9 -14 16 0 19 13 5 21 -5 3 -11 0 -14 -7z"/>
<path d="M9580 2420 c0 -5 5 -10 10 -10 6 0 10 5 10 10 0 6 -4 10 -10 10 -5 0
-10 -4 -10 -10z"/>
<path d="M9230 2279 c0 -5 5 -7 10 -4 6 3 10 8 10 11 0 2 -4 4 -10 4 -5 0 -10
-5 -10 -11z"/>
<path d="M9000 2180 c0 -5 5 -10 11 -10 5 0 7 5 4 10 -3 6 -8 10 -11 10 -2 0
-4 -4 -4 -10z"/>
<path d="M8796 2063 c-6 -14 -5 -15 5 -6 7 7 10 15 7 18 -3 3 -9 -2 -12 -12z"/>
<path d="M8770 1990 c0 -5 5 -10 10 -10 6 0 10 5 10 10 0 6 -4 10 -10 10 -5 0
-10 -4 -10 -10z"/>
<path d="M8576 1885 c-11 -8 -16 -15 -10 -15 5 0 18 7 28 15 11 8 16 15 10 15
-5 0 -18 -7 -28 -15z"/>
<path d="M8335 1720 c-3 -5 -2 -10 4 -10 5 0 13 5 16 10 3 6 2 10 -4 10 -5 0
-13 -4 -16 -10z"/>
<path d="M8240 1679 c-22 -18 -22 -19 -3 -10 12 6 25 16 28 21 9 15 3 12 -25
-11z"/>
<path d="M8300 1635 c0 -8 2 -15 4 -15 2 0 6 7 10 15 3 8 1 15 -4 15 -6 0 -10
-7 -10 -15z"/>
<path d="M7950 1450 c0 -5 5 -10 10 -10 6 0 10 5 10 10 0 6 -4 10 -10 10 -5 0
-10 -4 -10 -10z"/>
<path d="M7870 1339 c0 -5 5 -7 10 -4 6 3 10 8 10 11 0 2 -4 4 -10 4 -5 0 -10
-5 -10 -11z"/>
<path d="M7727 1195 c-16 -14 -25 -30 -22 -35 3 -6 -4 -10 -16 -10 -18 0 -20
-3 -11 -12 9 -9 16 -7 32 7 11 10 20 24 20 31 0 8 11 16 25 20 14 3 25 10 25
15 0 16 -25 9 -53 -16z"/>
<path d="M7685 1044 c-8 -20 -15 -44 -15 -53 0 -14 -2 -14 -10 -1 -8 12 -10
11 -10 -7 0 -18 -5 -21 -40 -20 -41 2 -57 17 -17 17 17 0 19 2 8 9 -18 12 -41
3 -41 -16 0 -9 -6 -13 -15 -9 -8 3 -21 -4 -30 -17 -11 -16 -15 -18 -15 -5 0
16 -41 29 -84 27 -19 -1 -18 -2 4 -8 14 -4 24 -13 23 -19 -2 -7 4 -12 12 -12
8 0 15 -4 15 -10 0 -5 -5 -10 -10 -10 -6 0 -9 -10 -8 -22 2 -13 -1 -23 -7 -23
-5 0 -9 6 -9 13 1 8 -6 11 -20 7 -20 -5 -20 -5 2 6 27 15 27 21 2 44 -20 18
-21 18 -45 -5 -21 -19 -27 -21 -40 -10 -12 10 -18 11 -28 1 -9 -10 -8 -14 6
-22 24 -14 11 -32 -13 -19 -10 5 -22 10 -27 10 -14 -1 61 -39 78 -40 9 0 20
-7 23 -16 4 -9 9 -14 12 -11 3 3 20 -3 38 -13 23 -12 38 -15 49 -8 23 13 21
28 -4 28 -34 0 -12 17 31 24 22 3 40 11 40 16 0 6 8 10 18 10 14 -1 13 -4 -8
-22 l-25 -21 27 6 c23 6 25 4 21 -13 -6 -23 -14 -25 -31 -8 -6 6 -15 9 -19 5
-4 -4 7 -13 24 -19 28 -11 30 -13 15 -25 -16 -12 -16 -12 0 -13 9 0 21 7 26
16 8 15 11 14 23 -3 15 -21 49 -27 49 -9 0 21 38 45 62 39 22 -5 22 -5 5 9
-17 13 -17 15 -3 27 9 7 22 11 29 8 8 -3 14 1 14 10 0 10 -8 13 -22 10 -18 -3
-21 0 -17 15 2 10 9 18 14 18 5 0 6 -5 2 -12 -4 -6 -3 -8 3 -5 6 4 27 0 47 -8
47 -20 54 -19 30 4 -10 10 -26 16 -34 13 -9 -3 -11 -1 -7 4 5 5 -7 14 -30 21
-24 7 -30 12 -17 12 12 1 28 9 35 18 8 9 9 14 3 10 -14 -8 -35 31 -33 58 4 41
-1 55 -21 55 -13 0 -25 -12 -35 -36z m35 -34 c0 -11 -6 -20 -14 -20 -21 0 -31
21 -15 31 22 14 29 11 29 -11z m-80 -71 c0 -12 -17 -11 -25 1 -4 6 -11 7 -17
4 -7 -5 -7 -8 0 -13 6 -4 -2 -14 -19 -23 -35 -21 -37 -10 -5 25 16 18 30 24
45 20 12 -3 21 -9 21 -14z m-305 -29 c3 -5 2 -10 -4 -10 -5 0 -13 5 -16 10 -3
6 -2 10 4 10 5 0 13 -4 16 -10z m155 -10 c0 -5 -5 -10 -11 -10 -5 0 -7 5 -4
10 3 6 8 10 11 10 2 0 4 -4 4 -10z m24 -15 c-4 -8 -11 -15 -16 -15 -6 0 -5 6
2 15 7 8 14 15 16 15 2 0 1 -7 -2 -15z m186 -30 c0 -8 -7 -15 -15 -15 -8 0
-14 -6 -12 -12 1 -7 -8 -14 -20 -16 -14 -2 -20 -8 -16 -18 3 -8 0 -14 -5 -14
-20 0 -23 19 -5 34 77 63 73 61 73 41z"/>
<path d="M7645 1040 c3 -5 8 -10 11 -10 2 0 4 5 4 10 0 6 -5 10 -11 10 -5 0
-7 -4 -4 -10z"/>
<path d="M7610 1010 c0 -5 5 -10 10 -10 6 0 10 5 10 10 0 6 -4 10 -10 10 -5 0
-10 -4 -10 -10z"/>
<path d="M7495 980 c-3 -5 -1 -10 4 -10 6 0 11 5 11 10 0 6 -2 10 -4 10 -3 0
-8 -4 -11 -10z"/>
<path d="M7840 970 c0 -5 5 -10 10 -10 6 0 10 5 10 10 0 6 -4 10 -10 10 -5 0
-10 -4 -10 -10z"/>
<path d="M6848 963 c7 -3 16 -2 19 1 4 3 -2 6 -13 5 -11 0 -14 -3 -6 -6z"/>
<path d="M6928 963 c7 -3 16 -2 19 1 4 3 -2 6 -13 5 -11 0 -14 -3 -6 -6z"/>
<path d="M7807 943 c-4 -3 -7 -11 -7 -17 0 -6 5 -5 12 2 6 6 9 14 7 17 -3 3
-9 2 -12 -2z"/>
<path d="M7797 850 c21 -22 23 -23 41 -7 10 9 22 14 25 10 4 -3 7 -1 7 5 0 16
-12 15 -36 -2 -17 -13 -22 -12 -39 2 -16 13 -15 11 2 -8z"/>
<path d="M7725 840 c-3 -5 -2 -10 4 -10 5 0 13 5 16 10 3 6 2 10 -4 10 -5 0
-13 -4 -16 -10z"/>
<path d="M7334 775 c13 -14 26 -25 30 -25 3 0 -1 11 -10 25 -9 14 -22 25 -30
25 -8 0 -5 -9 10 -25z"/>
<path d="M7882 791 c-30 -8 -33 -23 -5 -27 12 -2 24 3 27 13 8 20 6 21 -22 14z"/>
<path d="M7290 782 c0 -12 19 -26 26 -19 2 2 -2 10 -11 17 -9 8 -15 8 -15 2z"/>
<path d="M7495 780 c3 -5 13 -10 21 -10 8 0 14 5 14 10 0 6 -9 10 -21 10 -11
0 -17 -4 -14 -10z"/>
<path d="M7810 766 c0 -9 7 -16 16 -16 9 0 14 5 12 12 -6 18 -28 21 -28 4z"/>
<path d="M7400 759 c0 -5 5 -7 10 -4 6 3 10 8 10 11 0 2 -4 4 -10 4 -5 0 -10
-5 -10 -11z"/>
<path d="M7480 713 c-35 -6 -48 -22 -30 -33 12 -8 11 -10 -5 -10 -15 0 -16 -3
-7 -9 24 -15 64 -7 80 17 12 19 13 23 1 20 -8 -2 -13 3 -11 10 1 6 1 11 0 11
-2 -1 -14 -4 -28 -6z m13 -33 c3 -13 0 -20 -8 -20 -8 0 -13 9 -12 20 1 11 4
20 8 20 4 0 9 -9 12 -20z"/>
<path d="M8035 710 c-3 -5 1 -10 9 -10 9 0 16 5 16 10 0 6 -4 10 -9 10 -6 0
-13 -4 -16 -10z"/>
<path d="M7790 639 c0 -5 5 -7 10 -4 6 3 10 8 10 11 0 2 -4 4 -10 4 -5 0 -10
-5 -10 -11z"/>
<path d="M7760 586 c0 -2 7 -7 16 -10 8 -3 12 -2 9 4 -6 10 -25 14 -25 6z"/>
</g>
</svg>
